<svg width="876" height="565" viewBox="0 0 876 565" fill="none" xmlns="http://www.w3.org/2000/svg">
<path d="M258.181 292.538H27.5643L44.615 128.256H277.185L258.181 292.538Z" fill="#F5F5F5"/>
<path d="M52.9211 264.974C52.7088 264.974 55.1002 240.24 58.2415 209.789C61.3828 179.338 64.0996 154.604 64.2977 154.604C64.4958 154.604 62.1186 179.324 58.9773 209.789C55.836 240.254 53.1192 264.988 52.9211 264.974Z" fill="#E0E0E0"/>
<path d="M94.9042 160.193C91.0575 160.557 87.1916 160.68 83.3295 160.561C79.4673 160.68 75.6015 160.557 71.7548 160.193C75.601 159.82 79.4673 159.697 83.3295 159.825C87.1916 159.697 91.058 159.82 94.9042 160.193Z" fill="#E0E0E0"/>
<path d="M193.403 160.193C193.403 160.391 172.758 160.561 147.302 160.561C121.846 160.561 101.187 160.391 101.187 160.193C101.187 159.995 121.832 159.825 147.302 159.825C172.772 159.825 193.403 159.981 193.403 160.193Z" fill="#E0E0E0"/>
<path d="M92.1733 218.562C88.3271 218.935 84.4607 219.058 80.5986 218.93C76.7364 219.058 72.8701 218.935 69.0238 218.562C72.8706 218.197 76.7364 218.075 80.5986 218.194C84.4607 218.075 88.3265 218.197 92.1733 218.562Z" fill="#E0E0E0"/>
<path d="M190.672 218.562C190.672 218.774 170.027 218.93 144.571 218.93C119.115 218.93 98.4559 218.774 98.4559 218.562C98.4559 218.35 119.101 218.194 144.571 218.194C170.041 218.194 190.672 218.364 190.672 218.562Z" fill="#E0E0E0"/>
<path d="M159.259 245.546C159.259 245.758 138.614 245.914 113.158 245.914C87.7019 245.914 67.0428 245.758 67.0428 245.546C67.0428 245.334 87.6877 245.178 113.158 245.178C138.628 245.178 159.259 245.277 159.259 245.546Z" fill="#E0E0E0"/>
<path d="M105.106 176.678C105.106 176.876 97.8192 177.046 88.8197 177.046C79.8203 177.046 72.5331 176.876 72.5331 176.678C72.5331 176.48 79.8345 176.296 88.8197 176.296C97.805 176.296 105.106 176.465 105.106 176.678Z" fill="#E0E0E0"/>
<path d="M104.286 200.832C104.286 201.044 96.9843 201.2 87.999 201.2C79.0138 201.2 71.7123 201.044 71.7123 200.832C71.7123 200.62 78.9996 200.464 87.999 200.464C96.9984 200.464 104.286 200.634 104.286 200.832Z" fill="#E0E0E0"/>
<path d="M131.822 235.372C131.822 235.57 124.52 235.74 115.535 235.74C106.55 235.74 99.2483 235.57 99.2483 235.372C99.2483 235.174 106.536 235.004 115.535 235.004C124.534 235.004 131.822 235.16 131.822 235.372Z" fill="#E0E0E0"/>
<path d="M223.57 176.678C223.57 176.876 204.949 177.046 181.969 177.046C158.99 177.046 140.354 176.876 140.354 176.678C140.354 176.48 158.99 176.296 181.969 176.296C204.949 176.296 223.57 176.465 223.57 176.678Z" fill="#E0E0E0"/>
<path d="M197.916 202.233C197.916 202.445 179.295 202.601 156.315 202.601C133.336 202.601 114.714 202.445 114.714 202.233C114.714 202.021 133.336 201.865 156.315 201.865C179.295 201.865 197.916 202.035 197.916 202.233Z" fill="#E0E0E0"/>
<path d="M226.556 235.372C226.556 235.57 207.92 235.74 184.955 235.74C161.989 235.74 143.34 235.57 143.34 235.372C143.34 235.174 161.975 235.004 184.955 235.004C207.935 235.004 226.556 235.16 226.556 235.372Z" fill="#E0E0E0"/>
<path d="M150.585 264.974C150.585 265.172 131.949 265.342 108.969 265.342C85.9897 265.342 67.3683 265.172 67.3683 264.974C67.3683 264.776 85.9897 264.606 108.969 264.606C131.949 264.606 150.585 264.762 150.585 264.974Z" fill="#E0E0E0"/>
<path d="M242.602 264.974C242.602 265.172 223.967 265.342 201.001 265.342C178.036 265.342 159.386 265.172 159.386 264.974C159.386 264.776 178.007 264.606 201.001 264.606C223.995 264.606 242.602 264.762 242.602 264.974Z" fill="#E0E0E0"/>
<path d="M150.57 274.596C150.57 274.808 131.949 274.964 108.969 274.964C85.9897 274.964 67.3541 274.808 67.3541 274.596C67.3541 274.384 85.9897 274.228 108.969 274.228C131.949 274.228 150.57 274.398 150.57 274.596Z" fill="#E0E0E0"/>
<path d="M154.617 183.611C154.617 183.809 135.996 183.979 113.016 183.979C90.0366 183.979 71.401 183.809 71.401 183.611C71.401 183.413 90.0366 183.243 113.016 183.243C135.996 183.243 154.617 183.399 154.617 183.611Z" fill="#E0E0E0"/>
<path d="M132.43 176.763C128.872 177.127 125.293 177.25 121.719 177.131C118.139 177.25 114.556 177.127 110.993 176.763C114.555 176.39 118.139 176.267 121.719 176.395C125.293 176.267 128.873 176.39 132.43 176.763Z" fill="#E0E0E0"/>
<path d="M89.4565 226.5C85.8936 226.864 82.3102 226.987 78.7307 226.868C75.156 226.987 71.5773 226.864 68.0192 226.5C71.5773 226.136 75.156 226.013 78.7307 226.132C82.3102 226.013 85.8936 226.136 89.4565 226.5Z" fill="#E0E0E0"/>
<path d="M88.9471 235.372C85.3889 235.736 81.8102 235.859 78.2355 235.74C74.656 235.859 71.0726 235.736 67.5098 235.372C71.072 234.999 74.656 234.876 78.2355 235.004C81.8102 234.876 85.3895 234.999 88.9471 235.372Z" fill="#E0E0E0"/>
<path d="M274.638 145.633C274.638 145.845 222.778 146.001 158.82 146.001C94.8618 146.001 42.9736 145.845 42.9736 145.633C42.9736 145.42 94.8335 145.265 158.82 145.265C222.806 145.265 274.638 145.435 274.638 145.633Z" fill="#E0E0E0"/>
<path d="M58.6094 140.553C60.1255 140.553 61.3545 139.324 61.3545 137.808C61.3545 136.292 60.1255 135.062 58.6094 135.062C57.0933 135.062 55.8643 136.292 55.8643 137.808C55.8643 139.324 57.0933 140.553 58.6094 140.553Z" fill="white"/>
<path d="M70.3964 140.553C71.9124 140.553 73.1415 139.324 73.1415 137.808C73.1415 136.292 71.9124 135.062 70.3964 135.062C68.8803 135.062 67.6512 136.292 67.6512 137.808C67.6512 139.324 68.8803 140.553 70.3964 140.553Z" fill="white"/>
<path d="M82.1834 140.553C83.6995 140.553 84.9285 139.324 84.9285 137.808C84.9285 136.292 83.6995 135.062 82.1834 135.062C80.6673 135.062 79.4383 136.292 79.4383 137.808C79.4383 139.324 80.6673 140.553 82.1834 140.553Z" fill="white"/>
<path d="M856.996 210.397H626.379L643.43 46.1295H876L856.996 210.397Z" fill="#F5F5F5"/>
<path d="M651.736 182.833C651.538 182.833 653.915 158.099 657.056 127.648C660.198 97.197 662.915 72.4628 663.113 72.5477C663.311 72.6326 660.934 97.2678 657.792 127.733C654.651 158.198 651.934 182.847 651.736 182.833Z" fill="#E0E0E0"/>
<path d="M693.719 78.052C686.011 78.5425 678.279 78.5425 670.57 78.052C678.279 77.5615 686.011 77.5615 693.719 78.052Z" fill="#E0E0E0"/>
<path d="M792.232 78.052C792.232 78.2501 771.587 78.4199 746.117 78.4199C720.647 78.4199 700.002 78.2501 700.002 78.052C700.002 77.8539 720.647 77.6841 746.117 77.6841C771.587 77.6841 792.232 77.8539 792.232 78.052Z" fill="#E0E0E0"/>
<path d="M691.002 136.435C683.289 136.925 675.552 136.925 667.839 136.435C675.552 135.945 683.289 135.945 691.002 136.435Z" fill="#E0E0E0"/>
<path d="M789.572 136.435C789.572 136.633 768.927 136.803 743.457 136.803C717.987 136.803 697.342 136.633 697.342 136.435C697.342 136.237 717.987 136.067 743.457 136.067C768.927 136.067 789.572 136.223 789.572 136.435Z" fill="#E0E0E0"/>
<path d="M758.088 163.349C758.088 163.547 737.443 163.716 711.973 163.716C686.503 163.716 665.858 163.547 665.858 163.349C665.858 163.15 686.503 162.981 711.973 162.981C737.443 162.981 758.088 163.136 758.088 163.349Z" fill="#E0E0E0"/>
<path d="M703.936 94.5368C703.936 94.7349 696.634 94.9047 687.649 94.9047C678.664 94.9047 671.362 94.7349 671.362 94.5368C671.362 94.3387 678.65 94.1406 687.691 94.1406C696.733 94.1406 703.936 94.3246 703.936 94.5368Z" fill="#E0E0E0"/>
<path d="M703.101 118.691C703.101 118.903 695.814 119.059 686.814 119.059C677.815 119.059 670.527 118.903 670.527 118.691C670.527 118.479 677.815 118.323 686.814 118.323C695.814 118.323 703.101 118.493 703.101 118.691Z" fill="#E0E0E0"/>
<path d="M730.637 153.231C730.637 153.429 723.349 153.599 714.35 153.599C705.351 153.599 698.063 153.429 698.063 153.231C698.063 153.033 705.351 152.863 714.35 152.863C723.349 152.863 730.637 153.033 730.637 153.231Z" fill="#E0E0E0"/>
<path d="M822.428 94.5368C822.428 94.7349 803.792 94.9047 780.813 94.9047C757.833 94.9047 739.212 94.7349 739.212 94.5368C739.212 94.3387 757.833 94.1689 780.813 94.1689C803.792 94.1689 822.428 94.3246 822.428 94.5368Z" fill="#E0E0E0"/>
<path d="M796.746 120.092C796.746 120.304 778.11 120.46 755.13 120.46C732.151 120.46 713.529 120.304 713.529 120.092C713.529 119.88 732.151 119.724 755.13 119.724C778.11 119.724 796.746 119.894 796.746 120.092Z" fill="#E0E0E0"/>
<path d="M825.371 153.231C825.371 153.429 806.75 153.599 783.77 153.599C760.79 153.599 742.169 153.429 742.169 153.231C742.169 153.033 760.79 152.863 783.77 152.863C806.75 152.863 825.371 153.033 825.371 153.231Z" fill="#E0E0E0"/>
<path d="M749.4 182.833C749.4 183.031 730.764 183.201 707.799 183.201C684.833 183.201 666.183 183.031 666.183 182.833C666.183 182.635 684.805 182.465 707.799 182.465C730.792 182.465 749.4 182.621 749.4 182.833Z" fill="#E0E0E0"/>
<path d="M841.417 182.833C841.417 183.031 822.796 183.201 799.816 183.201C776.837 183.201 758.201 183.031 758.201 182.833C758.201 182.635 776.837 182.465 799.816 182.465C822.796 182.465 841.417 182.621 841.417 182.833Z" fill="#E0E0E0"/>
<path d="M749.385 192.455C749.385 192.667 730.764 192.823 707.784 192.823C684.805 192.823 666.183 192.667 666.183 192.455C666.183 192.243 684.805 192.087 707.784 192.087C730.764 192.087 749.385 192.257 749.385 192.455Z" fill="#E0E0E0"/>
<path d="M753.447 101.47C753.447 101.668 734.811 101.838 711.831 101.838C688.852 101.838 670.23 101.668 670.23 101.47C670.23 101.272 688.852 101.102 711.831 101.102C734.811 101.102 753.447 101.216 753.447 101.47Z" fill="#E0E0E0"/>
<path d="M731.245 94.6217C724.113 95.1122 716.955 95.1122 709.822 94.6217C716.955 94.1311 724.113 94.1311 731.245 94.6217Z" fill="#E0E0E0"/>
<path d="M688.272 144.359C681.134 144.85 673.972 144.85 666.834 144.359C673.972 143.869 681.134 143.869 688.272 144.359Z" fill="#E0E0E0"/>
<path d="M687.762 153.231C680.629 153.722 673.472 153.722 666.339 153.231C673.472 152.741 680.629 152.741 687.762 153.231Z" fill="#E0E0E0"/>
<path d="M873.467 63.4917C873.467 63.7039 821.593 63.8596 757.635 63.8596C693.677 63.8596 641.803 63.7039 641.803 63.4917C641.803 63.2794 693.648 63.1238 757.635 63.1238C821.621 63.1238 873.467 63.2936 873.467 63.4917Z" fill="#E0E0E0"/>
<path d="M657.424 58.4118C658.94 58.4118 660.169 57.1828 660.169 55.6667C660.169 54.1506 658.94 52.9216 657.424 52.9216C655.908 52.9216 654.679 54.1506 654.679 55.6667C654.679 57.1828 655.908 58.4118 657.424 58.4118Z" fill="white"/>
<path d="M669.211 58.4118C670.727 58.4118 671.956 57.1828 671.956 55.6667C671.956 54.1506 670.727 52.9216 669.211 52.9216C667.695 52.9216 666.466 54.1506 666.466 55.6667C666.466 57.1828 667.695 58.4118 669.211 58.4118Z" fill="white"/>
<path d="M680.998 58.4118C682.514 58.4118 683.744 57.1828 683.744 55.6667C683.744 54.1506 682.514 52.9216 680.998 52.9216C679.482 52.9216 678.253 54.1506 678.253 55.6667C678.253 57.1828 679.482 58.4118 680.998 58.4118Z" fill="white"/>
<path d="M373.306 103.14H229.669L240.282 0.821167H385.135L373.306 103.14Z" fill="#EBEBEB"/>
<path d="M245.461 85.962C245.262 85.962 246.677 70.5526 248.63 51.5915C250.583 32.6305 252.337 17.2636 252.55 17.2777C252.762 17.2919 251.333 32.7013 249.366 51.6623C247.399 70.6233 245.659 85.9903 245.461 85.962Z" fill="#E0E0E0"/>
<path d="M271.681 20.702C266.887 21.1926 262.055 21.1926 257.262 20.702C262.055 20.2115 266.887 20.2115 271.681 20.702Z" fill="#E0E0E0"/>
<path d="M332.964 20.702C332.964 20.9143 320.102 21.0699 304.24 21.0699C288.378 21.0699 275.515 20.9143 275.515 20.702C275.515 20.4898 288.378 20.3341 304.24 20.3341C320.102 20.3341 332.964 20.5605 332.964 20.702Z" fill="#E0E0E0"/>
<path d="M269.912 57.0676C265.118 57.5582 260.287 57.5582 255.493 57.0676C260.287 56.5771 265.118 56.5771 269.912 57.0676Z" fill="#E0E0E0"/>
<path d="M331.266 57.0676C331.266 57.2657 318.404 57.4355 302.542 57.4355C286.68 57.4355 273.817 57.2657 273.817 57.0676C273.817 56.8695 286.68 56.6997 302.542 56.6997C318.404 56.6997 331.266 56.8695 331.266 57.0676Z" fill="#E0E0E0"/>
<path d="M311.697 73.8212C311.697 74.0334 298.834 74.1891 282.972 74.1891C267.11 74.1891 254.262 74.0334 254.262 73.8212C254.262 73.6089 267.11 73.4532 282.972 73.4532C298.834 73.4532 311.697 73.6231 311.697 73.8212Z" fill="#E0E0E0"/>
<path d="M277.963 30.9748C274.594 31.3389 271.204 31.4619 267.818 31.3427C264.436 31.4621 261.05 31.3392 257.686 30.9748C261.05 30.602 264.436 30.479 267.818 30.6069C271.204 30.4793 274.595 30.6023 277.963 30.9748Z" fill="#E0E0E0"/>
<path d="M277.454 46.0304C274.086 46.4029 270.695 46.5259 267.308 46.3983C263.922 46.5259 260.531 46.4029 257.163 46.0304C260.531 45.6663 263.922 45.5434 267.308 45.6625C270.695 45.5434 274.085 45.6663 277.454 46.0304Z" fill="#E0E0E0"/>
<path d="M294.604 67.5244C291.235 67.897 287.844 68.0199 284.458 67.8923C281.072 68.0199 277.681 67.897 274.312 67.5244C277.681 67.1604 281.072 67.0374 284.458 67.1565C287.844 67.0374 291.235 67.1604 294.604 67.5244Z" fill="#E0E0E0"/>
<path d="M351.77 30.975C351.77 31.1731 340.167 31.3429 325.861 31.3429C311.555 31.3429 299.981 31.1731 299.981 30.975C299.981 30.7769 311.584 30.6071 325.903 30.6071C340.223 30.6071 351.77 30.7627 351.77 30.975Z" fill="#E0E0E0"/>
<path d="M335.766 46.8937C335.766 47.0918 324.163 47.2616 309.857 47.2616C295.552 47.2616 283.949 47.0918 283.949 46.8937C283.949 46.6956 295.552 46.5258 309.857 46.5258C324.163 46.5258 335.766 46.6956 335.766 46.8937Z" fill="#E0E0E0"/>
<path d="M353.609 67.5244C353.609 67.7366 342.006 67.8923 327.701 67.8923C313.395 67.8923 301.778 67.7366 301.778 67.5244C301.778 67.3121 313.381 67.1565 327.701 67.1565C342.02 67.1565 353.609 67.3263 353.609 67.5244Z" fill="#E0E0E0"/>
<path d="M306.291 85.9619C306.291 86.1741 294.689 86.3298 280.369 86.3298C266.049 86.3298 254.46 86.1741 254.46 85.9619C254.46 85.7496 266.063 85.594 280.369 85.594C294.674 85.594 306.291 85.7638 306.291 85.9619Z" fill="#E0E0E0"/>
<path d="M363.656 85.9619C363.656 86.1741 352.053 86.3298 337.747 86.3298C323.441 86.3298 311.824 86.1741 311.824 85.9619C311.824 85.7496 323.427 85.594 337.747 85.594C352.067 85.594 363.656 85.7638 363.656 85.9619Z" fill="#E0E0E0"/>
<path d="M306.277 91.9615C306.277 92.1738 294.674 92.3294 280.369 92.3294C266.063 92.3294 254.46 92.1738 254.46 91.9615C254.46 91.7493 266.049 91.5936 280.369 91.5936C294.689 91.5936 306.277 91.7634 306.277 91.9615Z" fill="#E0E0E0"/>
<path d="M308.796 35.2906C308.796 35.5029 297.193 35.6585 282.887 35.6585C268.582 35.6585 256.979 35.5029 256.979 35.2906C256.979 35.0784 268.582 34.9227 282.887 34.9227C297.193 34.9227 308.796 35.0925 308.796 35.2906Z" fill="#E0E0E0"/>
<path d="M294.986 31.0315C290.547 31.5217 286.067 31.5217 281.628 31.0315C286.067 30.5413 290.547 30.5413 294.986 31.0315Z" fill="#E0E0E0"/>
<path d="M268.214 62.006C263.779 62.4965 259.305 62.4965 254.87 62.006C259.305 61.5154 263.779 61.5154 268.214 62.006Z" fill="#E0E0E0"/>
<path d="M267.903 67.5245C263.463 68.0148 258.984 68.0148 254.545 67.5245C258.984 67.0343 263.463 67.0343 267.903 67.5245Z" fill="#E0E0E0"/>
<path d="M383.551 11.646C383.551 11.8441 351.26 12.0139 311.386 12.0139C271.511 12.0139 239.22 11.8441 239.22 11.646C239.22 11.4479 271.511 11.2781 311.386 11.2781C351.26 11.2781 383.551 11.4337 383.551 11.646Z" fill="#E0E0E0"/>
<path d="M250.71 6.76413C250.699 7.10191 250.588 7.42879 250.391 7.70361C250.195 7.97842 249.921 8.18887 249.605 8.30844C249.289 8.42801 248.944 8.45135 248.615 8.37553C248.286 8.2997 247.986 8.1281 247.754 7.88234C247.522 7.63658 247.368 7.32766 247.311 6.99449C247.254 6.66132 247.298 6.3188 247.435 6.0101C247.573 5.7014 247.799 5.44031 248.084 5.25974C248.37 5.07917 248.703 4.98718 249.041 4.99538C249.267 5.00086 249.489 5.05108 249.696 5.14314C249.903 5.23519 250.089 5.36726 250.244 5.53171C250.399 5.69617 250.52 5.88975 250.6 6.10128C250.68 6.31281 250.718 6.5381 250.71 6.76413Z" fill="white"/>
<path d="M258.054 6.76424C258.043 7.10024 257.933 7.42553 257.738 7.69955C257.544 7.97357 257.273 8.18419 256.959 8.30514C256.645 8.42609 256.303 8.45202 255.975 8.3797C255.646 8.30739 255.346 8.14002 255.113 7.89847C254.879 7.65692 254.721 7.35188 254.66 7.02139C254.598 6.6909 254.635 6.34958 254.766 6.04001C254.897 5.73044 255.117 5.46631 255.397 5.28056C255.677 5.09481 256.006 4.99567 256.342 4.99548C256.572 4.99536 256.799 5.04145 257.01 5.13101C257.222 5.22057 257.413 5.35177 257.573 5.5168C257.733 5.68184 257.858 5.87732 257.94 6.09163C258.023 6.30593 258.062 6.53468 258.054 6.76424Z" fill="white"/>
<path d="M265.398 6.76424C265.387 7.10024 265.277 7.42553 265.082 7.69955C264.888 7.97357 264.616 8.18419 264.303 8.30514C263.989 8.42609 263.647 8.45202 263.318 8.3797C262.99 8.30739 262.69 8.14002 262.457 7.89847C262.223 7.65692 262.065 7.35188 262.004 7.02139C261.942 6.6909 261.979 6.34958 262.11 6.04001C262.241 5.73044 262.461 5.46631 262.741 5.28056C263.021 5.09481 263.35 4.99567 263.686 4.99548C263.916 4.99536 264.143 5.04145 264.354 5.13101C264.566 5.22057 264.757 5.35177 264.917 5.5168C265.077 5.68184 265.202 5.87732 265.284 6.09163C265.367 6.30593 265.406 6.53468 265.398 6.76424Z" fill="white"/>
<path d="M763.677 281.699H691.342V515.826H763.677V281.699Z" fill="#EBEBEB"/>
<path d="M825.088 281.742H763.677V515.783H825.088V281.742Z" fill="#E0E0E0"/>
<path d="M755.017 291.18H696.988V341.611H755.017V291.18Z" fill="#E0E0E0"/>
<path d="M755.017 347.327H696.988V397.758H755.017V347.327Z" fill="#E0E0E0"/>
<path d="M755.017 403.474H696.988V453.905H755.017V403.474Z" fill="#E0E0E0"/>
<path d="M755.017 459.636H696.988V510.067H755.017V459.636Z" fill="#E0E0E0"/>
<path d="M726.01 300.49C726.013 300.891 725.896 301.284 725.676 301.618C725.455 301.953 725.14 302.215 724.771 302.37C724.401 302.525 723.994 302.567 723.6 302.491C723.207 302.414 722.845 302.223 722.561 301.94C722.276 301.658 722.082 301.298 722.003 300.905C721.924 300.512 721.963 300.104 722.116 299.734C722.268 299.363 722.528 299.046 722.861 298.823C723.194 298.6 723.586 298.481 723.986 298.481C724.521 298.481 725.033 298.692 725.412 299.069C725.791 299.445 726.006 299.956 726.01 300.49Z" fill="#FAFAFA"/>
<path d="M726.01 357.331C726.013 357.732 725.896 358.125 725.676 358.459C725.455 358.794 725.14 359.055 724.771 359.211C724.401 359.366 723.994 359.408 723.6 359.332C723.207 359.255 722.845 359.063 722.561 358.781C722.276 358.499 722.082 358.138 722.003 357.745C721.924 357.352 721.963 356.945 722.116 356.574C722.268 356.204 722.528 355.887 722.861 355.664C723.194 355.441 723.586 355.322 723.986 355.322C724.521 355.322 725.033 355.533 725.412 355.909C725.791 356.286 726.006 356.797 726.01 357.331Z" fill="#FAFAFA"/>
<path d="M726.01 414.101C726.01 414.501 725.891 414.892 725.669 415.225C725.446 415.558 725.13 415.817 724.761 415.971C724.391 416.124 723.984 416.164 723.592 416.086C723.199 416.008 722.839 415.815 722.556 415.532C722.273 415.249 722.08 414.888 722.002 414.496C721.924 414.103 721.964 413.696 722.117 413.327C722.27 412.957 722.529 412.641 722.862 412.419C723.195 412.196 723.586 412.078 723.986 412.078C724.523 412.078 725.038 412.291 725.417 412.67C725.797 413.05 726.01 413.564 726.01 414.101Z" fill="#FAFAFA"/>
<path d="M726.01 470.899C726.013 471.3 725.896 471.693 725.676 472.027C725.455 472.362 725.14 472.623 724.771 472.779C724.401 472.934 723.994 472.976 723.6 472.9C723.207 472.823 722.845 472.632 722.561 472.349C722.276 472.067 722.082 471.706 722.003 471.313C721.924 470.921 721.963 470.513 722.116 470.142C722.268 469.772 722.528 469.455 722.861 469.232C723.194 469.009 723.586 468.89 723.986 468.89C724.521 468.89 725.033 469.101 725.412 469.478C725.791 469.854 726.006 470.365 726.01 470.899Z" fill="#FAFAFA"/>
<path d="M699.705 515.826H691.342V562.79H699.705V515.826Z" fill="#E0E0E0"/>
<path d="M763.38 515.826H755.017V562.79H763.38V515.826Z" fill="#E0E0E0"/>
<path d="M824.183 515.826H815.82V562.79H824.183V515.826Z" fill="#E0E0E0"/>
<path d="M83.6833 549.531C81.5466 547.706 76.7639 541.904 80.4429 535.155C81.8579 532.692 84.6879 531.461 87.2774 530.372C89.9466 529.471 92.4652 528.173 94.7486 526.523C98.8097 523.085 99.9275 517.368 102.616 512.783C105.715 507.534 111.488 503.586 117.587 503.869C124.563 504.18 130.322 509.854 133.024 516.321C135.727 522.787 135.755 529.976 135.854 536.966C135.854 540.829 135.713 545.187 132.855 547.805C130.237 550.21 126.275 550.238 122.709 550.125L84.504 548.965" fill="#F5F5F5"/>
<path d="M156.655 445.061H56.3171L74.4008 552.333C74.7676 554.565 75.76 556.647 77.2628 558.338C78.7656 560.028 80.7172 561.258 82.8909 561.884L83.2446 561.983C83.5378 562.073 83.8353 562.149 84.1361 562.209C84.852 562.374 85.5813 562.474 86.3152 562.507V562.606L86.8104 562.535H131.525C132.352 562.53 133.176 562.445 133.987 562.28C136.593 561.886 138.998 560.646 140.831 558.752C142.664 556.857 143.824 554.413 144.132 551.795L152.82 477.875L153.217 474.932L156.655 445.656V445.061ZM137.722 513.491H127.435L128.468 482.361H140.397L137.722 513.491ZM141.401 482.361H151.306L147.627 513.491H138.67L141.401 482.361ZM111.983 548.003L111.361 520.962H126.19L125.284 548.003H111.983ZM95.9513 520.962H110.37L111.007 548.003H98.0597L95.9513 520.962ZM97.0692 548.003H84.9851C83.8389 540.701 82.339 531.207 80.7401 520.962H94.975L97.0692 548.003ZM95.3712 513.491L92.9374 482.361H109.465L110.186 513.491H95.3712ZM111.191 513.491L110.469 482.361H127.449L126.402 513.491H111.191ZM110.285 474.89L109.62 446.052H128.68L127.718 474.89H110.285ZM109.295 474.89H92.3148L90.0649 446.052H108.587L109.295 474.89ZM91.3526 474.89H73.4386C72.8019 470.913 72.1934 467.135 71.6557 463.753C69.7879 452.094 69.0804 447.707 68.6984 446.052H89.1452L91.3526 474.89ZM91.9469 482.361L94.3665 513.491H79.5515C79.0562 510.335 78.5468 507.137 78.0374 503.94C76.8771 496.596 75.7168 489.238 74.6272 482.361H91.9469ZM78.5468 513.491H68.854L63.6185 482.361H73.5801L78.5468 513.491ZM79.7212 520.962C81.1363 530.315 82.6503 539.541 83.9663 548.003H74.6555L70.0992 520.962H79.7212ZM126.275 548.003L127.18 520.962H137.085L134.765 548.003H126.275ZM128.765 474.932L129.727 446.094H143.552L141.09 474.932H128.765ZM67.7928 446.094C68.189 448.188 70.0143 459.537 72.4764 474.932H62.4016L57.534 446.094H67.7928ZM143.566 547.974H135.84L138.161 520.934H146.778L143.566 547.974ZM152.184 474.861H142.08L144.557 446.023H155.58L152.184 474.861Z" fill="#E0E0E0"/>
<path d="M817.872 562.775C817.872 562.988 634.742 563.143 408.936 563.143C183.13 563.143 0 562.988 0 562.775C0 562.563 183.087 562.408 409.007 562.408C634.926 562.408 817.872 562.577 817.872 562.775Z" fill="#263238"/>
<path d="M457.301 256.696H300.377L311.98 144.911H470.234L457.301 256.696Z" fill="#263238"/>
<path d="M449.32 256.696H292.382L303.985 144.911H462.239L449.32 256.696Z" fill="#455A64"/>
<path d="M443.49 251.63H297.872L308.64 147.911H455.489L443.49 251.63Z" fill="#F5F5F5"/>
<path d="M313.664 234.339C313.451 234.339 314.895 218.703 316.89 199.488C318.885 180.272 320.64 164.679 320.838 164.707C321.036 164.735 319.607 180.272 317.611 199.558C315.616 218.845 313.862 234.353 313.664 234.339Z" fill="#263238"/>
<path d="M340.167 168.174C335.307 168.664 330.41 168.664 325.55 168.174C330.41 167.683 335.307 167.683 340.167 168.174Z" fill="#263238"/>
<path d="M402.37 168.174C402.37 168.372 389.338 168.541 373.25 168.541C357.161 168.541 344.143 168.372 344.143 168.174C344.143 167.975 357.175 167.806 373.25 167.806C389.324 167.806 402.37 167.975 402.37 168.174Z" fill="#FB923C"/>
<path d="M338.455 205.034C333.59 205.525 328.688 205.525 323.823 205.034C328.688 204.544 333.59 204.544 338.455 205.034Z" fill="#263238"/>
<path d="M400.644 205.035C400.644 205.247 387.612 205.402 371.537 205.402C355.463 205.402 342.417 205.247 342.417 205.035C342.417 204.822 355.449 204.667 371.537 204.667C387.626 204.667 400.644 204.836 400.644 205.035Z" fill="#FB923C"/>
<path d="M380.806 222.029C380.806 222.227 367.773 222.397 351.699 222.397C335.624 222.397 322.578 222.227 322.578 222.029C322.578 221.831 335.61 221.661 351.699 221.661C367.788 221.661 380.806 221.831 380.806 222.029Z" fill="#FB923C"/>
<path d="M346.676 178.574C343.261 178.955 339.822 179.083 336.389 178.956C332.955 179.083 329.516 178.955 326.102 178.574C329.518 178.21 332.955 178.087 336.389 178.206C339.822 178.087 343.26 178.21 346.676 178.574Z" fill="#FB923C"/>
<path d="M346.096 193.842C342.679 194.206 339.242 194.329 335.808 194.21C332.375 194.329 328.938 194.206 325.521 193.842C328.937 193.47 332.375 193.347 335.808 193.474C339.242 193.347 342.68 193.47 346.096 193.842Z" fill="#FB923C"/>
<path d="M363.486 215.647C360.07 216.011 356.632 216.134 353.199 216.015C349.765 216.134 346.328 216.011 342.912 215.647C346.327 215.274 349.765 215.151 353.199 215.279C356.632 215.152 360.07 215.275 363.486 215.647Z" fill="#FB923C"/>
<path d="M421.43 178.574C421.43 178.786 409.672 178.956 395.168 178.956C380.664 178.956 368.891 178.786 368.891 178.574C368.891 178.362 380.65 178.206 395.168 178.206C409.686 178.206 421.43 178.376 421.43 178.574Z" fill="#263238"/>
<path d="M405.214 194.719C405.214 194.931 393.456 195.087 378.952 195.087C364.448 195.087 352.675 194.931 352.675 194.719C352.675 194.507 364.434 194.351 378.952 194.351C393.47 194.351 405.214 194.521 405.214 194.719Z" fill="#263238"/>
<path d="M423.298 215.647C423.298 215.845 411.539 216.015 397.036 216.015C382.532 216.015 370.731 215.831 370.731 215.647C370.731 215.463 382.489 215.279 397.007 215.279C411.525 215.279 423.298 215.435 423.298 215.647Z" fill="#263238"/>
<path d="M375.33 234.339C375.33 234.537 363.557 234.707 349.053 234.707C334.549 234.707 322.776 234.537 322.776 234.339C322.776 234.141 334.549 233.971 349.053 233.971C363.557 233.971 375.33 234.127 375.33 234.339Z" fill="#263238"/>
<path d="M433.43 234.339C433.43 234.537 421.671 234.707 407.167 234.707C392.663 234.707 380.89 234.537 380.89 234.339C380.89 234.141 392.649 233.971 407.167 233.971C421.685 233.971 433.43 234.127 433.43 234.339Z" fill="#263238"/>
<path d="M375.315 240.41C375.315 240.622 363.557 240.777 349.053 240.777C334.549 240.777 322.776 240.622 322.776 240.41C322.776 240.197 334.535 240.042 349.053 240.042C363.571 240.042 375.315 240.211 375.315 240.41Z" fill="#263238"/>
<path d="M377.876 182.96C377.876 183.159 366.118 183.328 351.614 183.328C337.11 183.328 325.337 183.159 325.337 182.96C325.337 182.762 337.096 182.593 351.614 182.593C366.132 182.593 377.876 182.762 377.876 182.96Z" fill="#263238"/>
<path d="M363.868 178.645C359.367 179.135 354.827 179.135 350.326 178.645C354.826 178.135 359.369 178.135 363.868 178.645Z" fill="#455A64"/>
<path d="M336.771 210.044C332.275 210.534 327.739 210.534 323.243 210.044C327.739 209.553 332.275 209.553 336.771 210.044Z" fill="#455A64"/>
<path d="M336.403 215.647C331.907 216.137 327.371 216.137 322.875 215.647C327.371 215.156 331.907 215.156 336.403 215.647Z" fill="#455A64"/>
<path d="M453.664 158.99C453.664 159.188 420.921 159.358 380.523 159.358C340.124 159.358 307.381 159.188 307.381 158.99C307.381 158.792 340.124 158.608 380.523 158.608C420.921 158.608 453.664 158.778 453.664 158.99Z" fill="#263238"/>
<path d="M318.984 154.038C318.984 154.383 318.882 154.72 318.69 155.006C318.498 155.293 318.225 155.516 317.906 155.647C317.588 155.778 317.237 155.812 316.899 155.744C316.561 155.675 316.251 155.508 316.008 155.263C315.765 155.019 315.6 154.707 315.535 154.369C315.469 154.03 315.506 153.68 315.64 153.362C315.774 153.044 315.999 152.773 316.287 152.584C316.575 152.394 316.913 152.294 317.258 152.297C317.486 152.297 317.711 152.342 317.922 152.43C318.132 152.518 318.323 152.646 318.483 152.808C318.644 152.97 318.771 153.162 318.857 153.373C318.943 153.584 318.986 153.81 318.984 154.038Z" fill="white"/>
<path d="M326.427 154.038C326.427 154.383 326.325 154.72 326.133 155.006C325.941 155.293 325.668 155.516 325.349 155.647C325.03 155.778 324.68 155.812 324.342 155.744C324.004 155.675 323.694 155.508 323.451 155.263C323.208 155.019 323.043 154.707 322.978 154.369C322.912 154.03 322.949 153.68 323.083 153.362C323.217 153.044 323.442 152.773 323.73 152.584C324.018 152.394 324.356 152.294 324.701 152.297C324.929 152.297 325.154 152.342 325.365 152.43C325.575 152.518 325.766 152.646 325.926 152.808C326.087 152.97 326.214 153.162 326.3 153.373C326.386 153.584 326.429 153.81 326.427 154.038Z" fill="white"/>
<path d="M333.941 154.038C333.941 154.383 333.838 154.72 333.646 155.006C333.454 155.293 333.182 155.516 332.863 155.647C332.544 155.778 332.193 155.812 331.855 155.744C331.517 155.675 331.207 155.508 330.965 155.263C330.722 155.019 330.557 154.707 330.492 154.369C330.426 154.03 330.462 153.68 330.596 153.362C330.73 153.044 330.956 152.773 331.244 152.584C331.532 152.394 331.87 152.294 332.214 152.297C332.442 152.297 332.668 152.342 332.878 152.43C333.089 152.518 333.28 152.646 333.44 152.808C333.601 152.97 333.727 153.162 333.813 153.373C333.899 153.584 333.943 153.81 333.941 154.038Z" fill="white"/>
<path d="M663.452 260.092H498.378L510.575 142.491H677.065L663.452 260.092Z" fill="#263238"/>
<path d="M655.047 260.092H489.973L502.185 142.491H668.66L655.047 260.092Z" fill="#455A64"/>
<path d="M648.934 254.758H495.76L507.08 145.647H661.556L648.934 254.758Z" fill="#EBEBEB"/>
<path d="M512.443 234.919C512.245 234.919 513.773 218.477 515.853 198.257C517.934 178.036 519.801 161.65 519.999 161.679C520.198 161.707 518.669 178.107 516.589 198.341C514.509 218.576 512.641 234.933 512.443 234.919Z" fill="#263238"/>
<path d="M540.333 165.33C535.218 165.82 530.067 165.82 524.952 165.33C530.066 164.82 535.219 164.82 540.333 165.33Z" fill="#263238"/>
<path d="M605.763 165.329C605.763 165.527 592.051 165.697 575.128 165.697C558.205 165.697 544.507 165.527 544.507 165.329C544.507 165.131 558.219 164.947 575.128 164.947C592.037 164.947 605.763 165.117 605.763 165.329Z" fill="#FB923C"/>
<path d="M538.522 204.101C533.406 204.591 528.256 204.591 523.141 204.101C528.256 203.61 533.406 203.61 538.522 204.101Z" fill="#263238"/>
<path d="M603.952 204.101C603.952 204.299 590.226 204.468 573.317 204.468C556.407 204.468 542.696 204.299 542.696 204.101C542.696 203.902 556.407 203.733 573.317 203.733C590.226 203.733 603.952 203.902 603.952 204.101Z" fill="#FB923C"/>
<path d="M583.08 221.972C583.08 222.184 569.369 222.34 552.46 222.34C535.55 222.34 521.825 222.184 521.825 221.972C521.825 221.76 535.536 221.604 552.46 221.604C569.383 221.604 583.08 221.774 583.08 221.972Z" fill="#FB923C"/>
<path d="M547.111 176.211C539.907 176.701 532.679 176.701 525.475 176.211C532.679 175.72 539.907 175.72 547.111 176.211Z" fill="#FB923C"/>
<path d="M546.559 192.314C539.356 192.823 532.126 192.823 524.924 192.314C532.127 191.823 539.355 191.823 546.559 192.314Z" fill="#FB923C"/>
<path d="M564.855 215.265C557.652 215.755 550.423 215.755 543.22 215.265C550.423 214.774 557.652 214.774 564.855 215.265Z" fill="#FB923C"/>
<path d="M625.813 176.211C625.813 176.423 613.446 176.579 598.178 176.579C582.91 176.579 570.543 176.423 570.543 176.211C570.543 175.999 582.91 175.843 598.178 175.843C613.446 175.843 625.813 176.069 625.813 176.211Z" fill="#263238"/>
<path d="M608.763 193.191C608.763 193.403 596.381 193.559 581.128 193.559C565.874 193.559 553.493 193.403 553.493 193.191C553.493 192.979 565.86 192.823 581.128 192.823C596.395 192.823 608.763 193.049 608.763 193.191Z" fill="#263238"/>
<path d="M627.78 215.265C627.78 215.463 615.399 215.633 600.145 215.633C584.891 215.633 572.51 215.463 572.51 215.265C572.51 215.067 584.877 214.897 600.145 214.897C615.413 214.897 627.78 215.053 627.78 215.265Z" fill="#263238"/>
<path d="M577.321 234.919C577.321 235.117 564.954 235.287 549.686 235.287C534.418 235.287 522.051 235.117 522.051 234.919C522.051 234.721 534.432 234.551 549.686 234.551C564.94 234.551 577.321 234.721 577.321 234.919Z" fill="#263238"/>
<path d="M638.435 234.919C638.435 235.117 626.054 235.287 610.8 235.287C595.546 235.287 583.165 235.117 583.165 234.919C583.165 234.721 595.532 234.551 610.8 234.551C626.068 234.551 638.435 234.721 638.435 234.919Z" fill="#263238"/>
<path d="M577.321 241.301C577.321 241.499 564.954 241.669 549.686 241.669C534.418 241.669 522.051 241.499 522.051 241.301C522.051 241.103 534.418 240.933 549.686 240.933C564.954 240.933 577.321 241.117 577.321 241.301Z" fill="#263238"/>
<path d="M579.996 180.88C579.996 181.078 567.628 181.248 552.361 181.248C537.093 181.248 524.726 181.078 524.726 180.88C524.726 180.682 537.093 180.512 552.361 180.512C567.628 180.512 579.996 180.682 579.996 180.88Z" fill="#263238"/>
<path d="M565.251 176.324C560.519 176.815 555.749 176.815 551.016 176.324C555.749 175.834 560.519 175.834 565.251 176.324Z" fill="#455A64"/>
<path d="M536.711 209.364C531.978 209.855 527.208 209.855 522.476 209.364C527.208 208.874 531.978 208.874 536.711 209.364Z" fill="#455A64"/>
<path d="M536.371 215.265C531.639 215.755 526.868 215.755 522.136 215.265C526.868 214.774 531.639 214.774 536.371 215.265Z" fill="#455A64"/>
<path d="M659.717 155.651C659.717 155.863 625.276 156.019 582.783 156.019C540.291 156.019 505.849 155.863 505.849 155.651C505.849 155.438 540.291 155.283 582.783 155.283C625.276 155.283 659.717 155.453 659.717 155.651Z" fill="#263238"/>
<path d="M518.047 150.458C518.047 150.819 517.94 151.172 517.739 151.472C517.539 151.772 517.253 152.006 516.92 152.144C516.586 152.282 516.219 152.318 515.865 152.248C515.511 152.178 515.186 152.004 514.931 151.748C514.675 151.493 514.501 151.168 514.431 150.814C514.361 150.46 514.397 150.093 514.535 149.759C514.673 149.426 514.907 149.141 515.207 148.94C515.507 148.739 515.86 148.632 516.221 148.632C516.462 148.63 516.7 148.676 516.922 148.767C517.144 148.859 517.346 148.993 517.516 149.163C517.686 149.333 517.821 149.535 517.912 149.757C518.003 149.979 518.049 150.218 518.047 150.458Z" fill="white"/>
<path d="M525.872 150.458C525.872 150.819 525.765 151.172 525.564 151.472C525.364 151.772 525.078 152.006 524.745 152.144C524.411 152.282 524.044 152.318 523.69 152.248C523.336 152.178 523.011 152.004 522.756 151.748C522.5 151.493 522.327 151.168 522.256 150.814C522.186 150.46 522.222 150.093 522.36 149.759C522.498 149.426 522.732 149.141 523.032 148.94C523.332 148.739 523.685 148.632 524.046 148.632C524.287 148.63 524.525 148.676 524.747 148.767C524.97 148.859 525.171 148.993 525.341 149.163C525.511 149.333 525.646 149.535 525.737 149.757C525.828 149.979 525.874 150.218 525.872 150.458Z" fill="white"/>
<path d="M533.711 150.458C533.711 150.819 533.604 151.172 533.403 151.472C533.203 151.772 532.918 152.006 532.584 152.144C532.25 152.282 531.883 152.318 531.529 152.248C531.175 152.178 530.85 152.004 530.595 151.748C530.339 151.493 530.166 151.168 530.095 150.814C530.025 150.46 530.061 150.093 530.199 149.759C530.337 149.426 530.571 149.141 530.871 148.94C531.172 148.739 531.524 148.632 531.886 148.632C532.126 148.63 532.364 148.676 532.586 148.767C532.809 148.859 533.011 148.993 533.18 149.163C533.35 149.333 533.485 149.535 533.576 149.757C533.667 149.979 533.713 150.218 533.711 150.458Z" fill="white"/>
<path d="M569.27 120.884H411.624L423.284 8.5896H582.26L569.27 120.884Z" fill="#263238"/>
<path d="M561.247 120.884H403.601L415.261 8.5896H574.236L561.247 120.884Z" fill="#455A64"/>
<path d="M555.389 115.804H409.12L419.93 11.6035H567.444L555.389 115.804Z" fill="#FAFAFA"/>
<path d="M425.194 98.3856C424.996 98.3856 426.454 82.6791 428.449 63.3785C430.444 44.0778 432.213 28.4138 432.425 28.4421C432.637 28.4704 431.165 44.1344 429.17 63.4492C427.175 82.764 425.406 98.3856 425.194 98.3856Z" fill="#263238"/>
<path d="M451.839 31.8806C446.955 32.3711 442.035 32.3711 437.151 31.8806C442.035 31.3901 446.955 31.3901 451.839 31.8806Z" fill="#263238"/>
<path d="M514.311 31.8806C514.311 32.0787 501.222 32.2485 485.063 32.2485C468.904 32.2485 455.815 32.0787 455.815 31.8806C455.815 31.6825 468.904 31.5127 485.063 31.5127C501.222 31.5127 514.311 31.64 514.311 31.8806Z" fill="#FB923C"/>
<path d="M450.098 68.8828C445.215 69.3733 440.294 69.3733 435.411 68.8828C440.294 68.3923 445.215 68.3923 450.098 68.8828Z" fill="#263238"/>
<path d="M512.585 68.8828C512.585 69.0809 499.482 69.2507 483.337 69.2507C467.192 69.2507 454.089 69.0809 454.089 68.8828C454.089 68.6847 467.177 68.5149 483.337 68.5149C499.496 68.5149 512.585 68.6705 512.585 68.8828Z" fill="#FB923C"/>
<path d="M492.662 85.9479C492.662 86.146 479.559 86.3158 463.413 86.3158C447.268 86.3158 434.165 86.146 434.165 85.9479C434.165 85.7498 447.254 85.58 463.413 85.58C479.573 85.58 492.662 85.7498 492.662 85.9479Z" fill="#FB923C"/>
<path d="M458.305 42.3091C451.428 42.7996 444.524 42.7996 437.646 42.3091C444.524 41.8185 451.428 41.8185 458.305 42.3091Z" fill="#FB923C"/>
<path d="M457.782 57.6337C450.904 58.1242 444 58.1242 437.123 57.6337C444 57.1431 450.904 57.1431 457.782 57.6337Z" fill="#FB923C"/>
<path d="M475.243 79.5378C468.365 80.0284 461.461 80.0284 454.584 79.5378C461.461 79.0473 468.365 79.0473 475.243 79.5378Z" fill="#FB923C"/>
<path d="M533.456 42.3091C533.456 42.5072 521.641 42.677 507.066 42.677C492.492 42.677 480.677 42.5072 480.677 42.3091C480.677 42.111 492.478 41.9412 507.066 41.9412C521.655 41.9412 533.456 42.0968 533.456 42.3091Z" fill="#263238"/>
<path d="M517.169 58.5251C517.169 58.7232 505.354 58.893 490.78 58.893C476.205 58.893 464.39 58.7232 464.39 58.5251C464.39 58.327 476.205 58.1572 490.78 58.1572C505.354 58.1572 517.169 58.3129 517.169 58.5251Z" fill="#263238"/>
<path d="M535.338 79.5378C535.338 79.7359 523.523 79.9057 508.948 79.9057C494.374 79.9057 482.558 79.7359 482.558 79.5378C482.558 79.3397 494.374 79.1699 508.948 79.1699C523.523 79.1699 535.338 79.3256 535.338 79.5378Z" fill="#263238"/>
<path d="M487.143 98.3856C487.143 98.5837 475.328 98.7535 460.753 98.7535C446.179 98.7535 434.406 98.5129 434.406 98.3856C434.406 98.2582 446.221 98.0177 460.796 98.0177C475.37 98.0177 487.143 98.1026 487.143 98.3856Z" fill="#263238"/>
<path d="M545.512 98.3856C545.512 98.5837 533.697 98.7535 519.122 98.7535C504.548 98.7535 492.732 98.5837 492.732 98.3856C492.732 98.1875 504.548 98.0177 519.122 98.0177C533.697 98.0177 545.512 98.1026 545.512 98.3856Z" fill="#263238"/>
<path d="M487.143 104.414C487.143 104.626 475.328 104.781 460.753 104.781C446.179 104.781 434.363 104.626 434.363 104.414C434.363 104.201 446.179 104.046 460.753 104.046C475.328 104.046 487.143 104.215 487.143 104.414Z" fill="#263238"/>
<path d="M489.704 46.7097C489.704 46.9078 477.889 47.0776 463.314 47.0776C448.74 47.0776 436.925 46.9078 436.925 46.7097C436.925 46.5116 448.74 46.3418 463.314 46.3418C477.889 46.3418 489.704 46.4975 489.704 46.7097Z" fill="#263238"/>
<path d="M475.639 42.3657C471.12 42.8562 466.56 42.8562 462.041 42.3657C466.56 41.8752 471.12 41.8752 475.639 42.3657Z" fill="#455A64"/>
<path d="M448.372 73.906C443.853 74.3965 439.293 74.3965 434.774 73.906C439.293 73.4155 443.853 73.4155 448.372 73.906Z" fill="#455A64"/>
<path d="M448.061 79.5378C443.541 80.0284 438.982 80.0284 434.462 79.5378C438.982 79.0473 443.541 79.0473 448.061 79.5378Z" fill="#455A64"/>
<path d="M565.831 22.6122C565.831 22.8244 532.947 22.9942 492.379 22.9942C451.81 22.9942 418.841 22.8244 418.841 22.6122C418.841 22.3999 451.725 22.2443 492.322 22.2443C532.918 22.2443 565.831 22.4141 565.831 22.6122Z" fill="#263238"/>
<path d="M428.817 19.3862C429.778 19.3862 430.557 18.607 430.557 17.6457C430.557 16.6845 429.778 15.9053 428.817 15.9053C427.855 15.9053 427.076 16.6845 427.076 17.6457C427.076 18.607 427.855 19.3862 428.817 19.3862Z" fill="white"/>
<path d="M436.288 19.3862C437.249 19.3862 438.028 18.607 438.028 17.6457C438.028 16.6845 437.249 15.9053 436.288 15.9053C435.327 15.9053 434.547 16.6845 434.547 17.6457C434.547 18.607 435.327 19.3862 436.288 19.3862Z" fill="white"/>
<path d="M443.759 19.3862C444.72 19.3862 445.5 18.607 445.5 17.6457C445.5 16.6845 444.72 15.9053 443.759 15.9053C442.798 15.9053 442.019 16.6845 442.019 17.6457C442.019 18.607 442.798 19.3862 443.759 19.3862Z" fill="white"/>
<path d="M302.216 545.088H289.934V561.842H302.216V545.088Z" fill="#263238"/>
<path d="M368.056 349.591H477.026V344.285H368.056V349.591Z" fill="#263238"/>
<path d="M493.907 349.591L514.354 272.997H429.255L410.747 349.591H493.907Z" fill="#263238"/>
<path d="M415.855 343.804H491.869L509.557 276.534H433.147L415.855 343.804Z" fill="#F5F5F5"/>
<path d="M435.043 289.567L430.331 308.613H480.733L486.11 289.567H435.043Z" fill="#E0E0E0"/>
<path d="M475.441 287.048C475.441 287.26 466.611 287.416 455.702 287.416C444.792 287.416 435.962 287.26 435.962 287.048C435.962 286.836 444.792 286.68 455.702 286.68C466.611 286.68 475.441 286.85 475.441 287.048Z" fill="#455A64"/>
<path d="M452.504 293.203C447.209 293.693 441.88 293.693 436.585 293.203C441.88 292.713 447.209 292.713 452.504 293.203Z" fill="#263238"/>
<path d="M465.267 292.906C461.832 293.397 458.344 293.397 454.909 292.906C458.344 292.415 461.832 292.415 465.267 292.906Z" fill="#263238"/>
<path d="M479.686 296.656C479.686 296.868 469.937 297.038 457.909 297.038C445.882 297.038 436.132 296.868 436.132 296.656C436.132 296.444 445.882 296.288 457.909 296.288C469.937 296.288 479.686 296.486 479.686 296.656Z" fill="#455A64"/>
<path d="M449.348 299.811C444.645 300.305 439.902 300.305 435.198 299.811C439.902 299.318 444.645 299.318 449.348 299.811Z" fill="#FB923C"/>
<path d="M475.781 304.325C475.781 304.523 466.739 304.693 455.588 304.693C444.438 304.693 435.382 304.523 435.382 304.325C435.382 304.127 444.424 303.957 455.588 303.957C466.753 303.957 475.781 304.113 475.781 304.325Z" fill="#455A64"/>
<path d="M446.051 314.075C440.875 314.561 435.663 314.561 430.486 314.075C435.663 313.588 440.875 313.588 446.051 314.075Z" fill="#455A64"/>
<path d="M459.409 314.145C457.653 314.488 455.859 314.597 454.074 314.471C452.29 314.58 450.499 314.437 448.754 314.046C450.51 313.704 452.304 313.594 454.089 313.721C455.873 313.612 457.664 313.754 459.409 314.145Z" fill="#263238"/>
<path d="M466.951 313.777C466.951 313.99 465.932 314.145 464.687 314.145C463.442 314.145 462.437 313.99 462.437 313.777C462.437 313.565 463.456 313.409 464.687 313.409C465.918 313.409 466.951 313.579 466.951 313.777Z" fill="#263238"/>
<path d="M435.694 317.98C435.694 318.192 434.576 318.348 433.203 318.348C431.831 318.348 430.727 318.192 430.727 317.98C430.727 317.768 431.845 317.612 433.203 317.612C434.562 317.612 435.694 317.782 435.694 317.98Z" fill="#FB923C"/>
<path d="M450.551 317.98C446.614 318.47 442.631 318.47 438.693 317.98C442.631 317.489 446.614 317.489 450.551 317.98Z" fill="#263238"/>
<path d="M485.983 317.527C485.983 317.739 478.908 317.895 470.149 317.895C461.39 317.895 454.301 317.739 454.301 317.527C454.301 317.315 461.376 317.159 470.149 317.159C478.922 317.159 485.983 317.329 485.983 317.527Z" fill="#455A64"/>
<path d="M434.929 322.041C434.929 322.239 433.797 322.409 432.382 322.409C430.967 322.409 429.835 322.239 429.835 322.041C429.835 321.843 430.967 321.673 432.382 321.673C433.797 321.673 434.929 321.829 434.929 322.041Z" fill="#263238"/>
<path d="M442.74 321.956C441.76 322.321 440.708 322.447 439.67 322.324C438.627 322.446 437.57 322.32 436.585 321.956C437.572 321.6 438.627 321.474 439.67 321.588C440.708 321.474 441.759 321.599 442.74 321.956Z" fill="#263238"/>
<path d="M466.017 321.588C459.371 322.079 452.698 322.079 446.051 321.588C452.698 321.098 459.371 321.098 466.017 321.588Z" fill="#455A64"/>
<path d="M453.707 328.649C449.69 329.013 445.654 329.136 441.622 329.017C437.591 329.136 433.555 329.013 429.538 328.649C433.555 328.276 437.591 328.153 441.622 328.281C445.654 328.154 449.69 328.277 453.707 328.649Z" fill="#455A64"/>
<path d="M467.814 328.338C464.18 328.828 460.496 328.828 456.862 328.338C460.496 327.847 464.18 327.847 467.814 328.338Z" fill="#FB923C"/>
<path d="M488.77 328.338C482.724 328.828 476.648 328.828 470.602 328.338C476.648 327.847 482.724 327.847 488.77 328.338Z" fill="#263238"/>
<path d="M483.931 286.751C483.931 286.963 483.082 287.119 482.049 287.119C481.016 287.119 480.167 286.963 480.167 286.751C480.167 286.539 481.016 286.383 482.049 286.383C483.082 286.383 483.931 286.581 483.931 286.751Z" fill="#263238"/>
<path d="M445.599 284.204C442.866 284.694 440.068 284.694 437.335 284.204C440.068 283.713 442.866 283.713 445.599 284.204Z" fill="#FB923C"/>
<path d="M508.283 281.374H431.873L433.161 276.534H509.571L508.283 281.374Z" fill="#EBEBEB"/>
<path d="M436.373 279.817C436.834 279.817 437.208 279.444 437.208 278.982C437.208 278.521 436.834 278.148 436.373 278.148C435.912 278.148 435.538 278.521 435.538 278.982C435.538 279.444 435.912 279.817 436.373 279.817Z" fill="#FAFAFA"/>
<path d="M439.245 279.817C439.706 279.817 440.08 279.444 440.08 278.982C440.08 278.521 439.706 278.148 439.245 278.148C438.784 278.148 438.41 278.521 438.41 278.982C438.41 279.444 438.784 279.817 439.245 279.817Z" fill="#FAFAFA"/>
<path d="M442.118 279.817C442.579 279.817 442.953 279.444 442.953 278.982C442.953 278.521 442.579 278.148 442.118 278.148C441.657 278.148 441.283 278.521 441.283 278.982C441.283 279.444 441.657 279.817 442.118 279.817Z" fill="#FAFAFA"/>
<path d="M601.404 356.723H420.228V462.437H601.404V356.723Z" fill="#263238"/>
<path d="M502.765 356.723H420.228V462.437H502.765V356.723Z" fill="#455A64"/>
<path d="M494.36 392.621C494.338 392.443 494.338 392.262 494.36 392.084V390.541C494.36 389.126 494.36 387.188 494.289 384.669C494.289 379.561 494.204 372.259 494.147 363.26L494.416 363.529L428.024 363.628L428.392 363.26V370.887C428.392 373.406 428.392 375.91 428.392 378.358C428.392 383.268 428.392 388.037 428.392 392.593L428.053 392.253L475.611 392.409L489.421 392.508H493.129H494.105H494.445H494.147H493.213H489.577L475.837 392.593L428.053 392.763H427.699V392.409C427.699 387.853 427.699 383.084 427.699 378.174V363.288L428.067 362.92L494.459 363.019H494.728V363.288C494.657 372.358 494.614 379.716 494.572 384.853C494.572 387.343 494.572 389.296 494.572 390.669V392.168C494.374 392.466 494.36 392.706 494.36 392.621Z" fill="#263238"/>
<path d="M463.979 377.948C463.795 377.145 463.347 376.428 462.706 375.91C462.362 375.669 461.964 375.516 461.547 375.465C461.13 375.413 460.707 375.464 460.315 375.613C459.842 375.795 459.436 376.115 459.148 376.532C458.86 376.948 458.705 377.442 458.701 377.948C458.708 378.453 458.866 378.945 459.153 379.361C459.44 379.776 459.844 380.097 460.315 380.283C460.709 380.426 461.132 380.473 461.548 380.419C461.964 380.364 462.361 380.211 462.706 379.971C463.342 379.449 463.789 378.734 463.979 377.934C463.979 377.934 464.107 378.188 463.979 378.655C463.865 379.334 463.508 379.947 462.975 380.382C462.569 380.712 462.086 380.934 461.571 381.026C461.056 381.117 460.526 381.076 460.032 380.905C459.412 380.693 458.875 380.292 458.494 379.759C458.114 379.227 457.909 378.588 457.909 377.934C457.909 377.279 458.114 376.641 458.494 376.108C458.875 375.575 459.412 375.174 460.032 374.962C460.525 374.789 461.054 374.746 461.569 374.835C462.084 374.924 462.568 375.143 462.975 375.472C463.508 375.906 463.865 376.519 463.979 377.198C464.121 377.693 464.022 377.948 463.979 377.948Z" fill="#263238"/>
<path d="M494.36 424.954C494.34 424.771 494.34 424.586 494.36 424.402V422.86C494.36 421.445 494.36 419.506 494.289 416.988C494.289 411.894 494.204 404.592 494.147 395.579L494.416 395.847L428.024 395.961L428.392 395.593V403.22C428.392 405.752 428.392 408.243 428.392 410.705C428.392 415.615 428.392 420.384 428.392 424.94L428.053 424.586L475.611 424.756L489.421 424.855H493.129H494.105H494.444H494.147H493.213H489.577L475.837 424.954L428.053 425.124H427.699V424.77C427.699 420.214 427.699 415.445 427.699 410.535V395.607C427.614 395.607 428.392 394.899 428.067 395.225L494.459 395.338H494.727V395.536C494.657 404.62 494.614 411.979 494.572 417.115C494.572 419.605 494.572 421.544 494.572 422.931V424.416C494.374 424.798 494.36 424.968 494.36 424.954Z" fill="#263238"/>
<path d="M463.979 410.266C463.781 409.482 463.334 408.782 462.706 408.271C462.329 408.002 461.885 407.841 461.423 407.807C460.961 407.772 460.499 407.865 460.086 408.075C459.673 408.285 459.325 408.605 459.081 408.999C458.837 409.392 458.706 409.846 458.701 410.309C458.705 410.815 458.86 411.309 459.148 411.725C459.436 412.141 459.842 412.462 460.315 412.644C460.707 412.793 461.13 412.844 461.547 412.792C461.964 412.74 462.362 412.587 462.706 412.346C463.344 411.827 463.792 411.11 463.979 410.309C463.979 410.309 464.107 410.564 463.979 411.031C463.865 411.709 463.508 412.323 462.975 412.757C462.569 413.088 462.086 413.309 461.571 413.401C461.056 413.493 460.526 413.451 460.032 413.28C459.412 413.068 458.875 412.667 458.494 412.135C458.114 411.602 457.909 410.964 457.909 410.309C457.909 409.654 458.114 409.016 458.494 408.483C458.875 407.95 459.412 407.55 460.032 407.337C460.526 407.167 461.056 407.125 461.571 407.217C462.086 407.308 462.569 407.53 462.975 407.861C463.508 408.295 463.865 408.909 463.979 409.587C464.121 410.012 464.022 410.266 463.979 410.266Z" fill="#263238"/>
<path d="M494.36 457.273C494.338 457.094 494.338 456.914 494.36 456.735V455.193C494.36 453.778 494.36 451.839 494.289 449.32C494.289 444.212 494.204 436.911 494.147 427.911L494.416 428.18L428.024 428.279L428.392 427.911V435.538C428.392 438.057 428.392 440.562 428.392 443.01C428.392 447.92 428.392 452.688 428.392 457.244L428.053 456.905L475.611 457.061L489.421 457.16H493.129H494.105H494.445H494.147H493.213H489.577L475.837 457.244L428.053 457.414H427.699V457.061C427.699 452.504 427.699 447.736 427.699 442.826V427.94L428.067 427.572L494.459 427.671H494.728V427.94C494.657 437.01 494.614 444.368 494.572 449.504C494.572 451.995 494.572 453.948 494.572 455.32V456.82C494.374 457.117 494.36 457.287 494.36 457.273Z" fill="#263238"/>
<path d="M463.979 442.599C463.795 441.797 463.347 441.079 462.706 440.562C462.362 440.321 461.964 440.168 461.547 440.116C461.13 440.064 460.707 440.115 460.315 440.264C459.842 440.446 459.436 440.767 459.148 441.183C458.86 441.6 458.705 442.093 458.701 442.599C458.706 443.063 458.837 443.516 459.081 443.91C459.325 444.303 459.673 444.623 460.086 444.833C460.499 445.043 460.961 445.136 461.423 445.101C461.885 445.067 462.329 444.906 462.706 444.637C463.342 444.115 463.789 443.399 463.979 442.599C463.979 442.599 464.107 442.854 463.979 443.321C463.865 443.999 463.508 444.613 462.975 445.047C462.569 445.378 462.086 445.6 461.571 445.691C461.056 445.783 460.526 445.741 460.032 445.571C459.412 445.358 458.875 444.958 458.494 444.425C458.114 443.892 457.909 443.254 457.909 442.599C457.909 441.945 458.114 441.306 458.494 440.773C458.875 440.241 459.412 439.84 460.032 439.628C460.525 439.455 461.054 439.411 461.569 439.5C462.084 439.59 462.568 439.809 462.975 440.137C463.508 440.571 463.865 441.185 463.979 441.863C464.121 442.345 464.022 442.599 463.979 442.599Z" fill="#263238"/>
<path d="M299.57 548.484L178.488 548.385V356.723H299.57V548.484Z" fill="#263238"/>
<path d="M607.984 349.35H172.645V359.397H607.984V349.35Z" fill="#263238"/>
<path d="M191.988 359.397H178.488V562.733H191.988V359.397Z" fill="#263238"/>
<path d="M601.405 359.397H587.906V562.79H601.405V359.397Z" fill="#263238"/>
<path d="M516.264 359.397H502.765V562.79H516.264V359.397Z" fill="#263238"/>
<path d="M233.858 349.35C233.858 349.549 220.882 349.718 204.878 349.718C188.875 349.718 175.899 349.549 175.899 349.35C175.899 349.152 188.875 348.983 204.878 348.983C220.882 348.983 233.858 349.138 233.858 349.35Z" fill="#455A64"/>
<path d="M361.151 552.828L361.491 538.296L334.252 537.475L333.53 558.7L335.214 558.856C342.714 559.507 373.419 561.601 378.471 560.271C384.131 558.743 361.151 552.828 361.151 552.828Z" fill="#FB923C"/>
<g opacity="0.4">
<path d="M372.358 556.125C372.358 556.125 380.409 558.7 379.348 560.016C378.287 561.332 347.199 560.356 333.53 558.743V558.134L369.797 559.549C369.797 559.549 370.731 556.139 372.358 556.125Z" fill="white"/>
</g>
<path d="M333.162 558.106H333.629L335.044 558.233L339.983 558.601C344.157 558.884 349.888 559.181 356.312 559.394C362.736 559.606 368.481 559.648 372.669 559.634C368.495 559.634 362.764 559.493 356.326 559.294C349.888 559.096 344.171 558.828 339.997 558.601L335.044 558.346H333.629L333.162 558.106Z" fill="#263238"/>
<path d="M369.825 559.974C370.067 559.159 370.405 558.375 370.83 557.639C371.342 556.965 371.926 556.348 372.57 555.799C371.745 556.137 371.04 556.716 370.55 557.461C370.06 558.206 369.808 559.082 369.825 559.974Z" fill="#263238"/>
<path d="M361.915 555.658C361.986 555.658 362.396 555.248 362.807 554.639C363.217 554.031 363.5 553.479 363.429 553.436C363.359 553.394 362.948 553.833 362.538 554.455C362.128 555.078 361.845 555.601 361.915 555.658Z" fill="#263238"/>
<path d="M359.75 554.427C359.75 554.427 360.246 554.215 360.727 553.804C361.208 553.394 361.547 553.012 361.491 552.941C361.434 552.87 360.996 553.153 360.514 553.564C360.033 553.974 359.694 554.356 359.75 554.427Z" fill="#263238"/>
<path d="M358.434 551.809C358.885 551.982 359.367 552.06 359.849 552.036C360.323 552.108 360.808 552.069 361.264 551.922C360.813 551.751 360.332 551.674 359.849 551.696C359.071 551.668 358.434 551.71 358.434 551.809Z" fill="#263238"/>
<path d="M357.996 549.984C358.459 550.302 359.005 550.479 359.566 550.493C360.118 550.601 360.69 550.542 361.208 550.323C360.677 550.214 360.136 550.162 359.595 550.168C359.07 550.047 358.534 549.985 357.996 549.984Z" fill="#263238"/>
<path d="M362.92 553.309C363.496 553.407 364.084 553.407 364.66 553.309C365.297 553.246 365.926 553.127 366.542 552.955C366.915 552.857 367.275 552.72 367.618 552.545C367.83 552.435 367.992 552.247 368.071 552.021C368.104 551.893 368.099 551.757 368.056 551.632C368.014 551.506 367.935 551.395 367.83 551.314C367.172 550.966 366.414 550.856 365.684 551.003C364.954 551.15 364.297 551.545 363.826 552.12C363.547 552.462 363.34 552.857 363.217 553.281C363.186 553.435 363.186 553.594 363.217 553.748C363.42 553.232 363.707 552.754 364.066 552.333C364.471 551.885 364.997 551.566 365.58 551.413C366.278 551.207 367.028 551.278 367.674 551.611C367.943 551.823 367.816 552.149 367.505 552.333C367.186 552.489 366.855 552.617 366.514 552.715C365.916 552.899 365.307 553.041 364.689 553.139C363.656 553.267 362.92 553.252 362.92 553.309Z" fill="#263238"/>
<path d="M363.359 553.408C363.585 553.051 363.67 552.622 363.599 552.205C363.562 551.742 363.411 551.295 363.161 550.903C363.023 550.641 362.821 550.418 362.573 550.254C362.326 550.091 362.041 549.993 361.745 549.97C361.566 550.001 361.406 550.101 361.3 550.25C361.194 550.398 361.151 550.582 361.18 550.762C361.215 551.044 361.312 551.314 361.463 551.554C361.675 551.948 361.942 552.31 362.255 552.63C362.518 552.952 362.852 553.208 363.231 553.38C363.231 553.38 362.892 553.054 362.425 552.474C362.157 552.146 361.924 551.79 361.731 551.413C361.505 551.031 361.349 550.366 361.802 550.295C362.255 550.224 362.665 550.72 362.92 551.073C363.16 551.42 363.32 551.817 363.387 552.234C363.418 552.625 363.409 553.019 363.359 553.408Z" fill="#263238"/>
<path d="M333.941 550.663C333.941 550.734 334.733 550.663 335.95 550.804C337.552 551.023 339.058 551.694 340.291 552.74C341.524 553.785 342.434 555.161 342.912 556.705C343.096 557.353 343.247 558.009 343.365 558.672C343.401 558.49 343.401 558.302 343.365 558.12C343.316 557.642 343.231 557.169 343.11 556.705C342.671 555.087 341.752 553.641 340.474 552.557C339.195 551.473 337.618 550.803 335.95 550.635C335.451 550.584 334.949 550.584 334.45 550.635C334.28 550.623 334.109 550.633 333.941 550.663Z" fill="#263238"/>
<path d="M337.11 539.414C336.872 541.268 336.735 543.134 336.7 545.003C336.57 546.887 336.546 548.776 336.629 550.663C336.868 548.809 337.005 546.943 337.04 545.074C337.178 543.19 337.202 541.3 337.11 539.414Z" fill="#263238"/>
<path d="M346.916 556.266C348.208 556.614 349.54 556.79 350.878 556.79C352.211 556.893 353.552 556.826 354.869 556.592C354.869 556.493 353.086 556.592 350.892 556.465C348.699 556.337 346.93 556.182 346.916 556.266Z" fill="#263238"/>
<path d="M341.582 556.097C341.582 556.097 341.709 556.479 341.879 556.889C342.049 557.299 342.134 557.681 342.233 557.667C342.332 557.653 342.388 557.243 342.233 556.776C342.077 556.309 341.638 556.04 341.582 556.097Z" fill="#263238"/>
<path d="M339.601 553.535C339.601 553.535 339.7 553.889 339.969 554.186C340.237 554.484 340.52 554.667 340.591 554.597C340.662 554.526 340.492 554.257 340.209 553.96C339.926 553.663 339.714 553.479 339.601 553.535Z" fill="#263238"/>
<path d="M336.771 552.304C336.771 552.403 337.153 552.403 337.549 552.559C337.945 552.715 338.228 552.927 338.299 552.87C338.37 552.814 338.157 552.432 337.662 552.248C337.167 552.064 336.771 552.219 336.771 552.304Z" fill="#263238"/>
<path d="M334.761 551.696C334.761 551.781 334.889 551.922 335.101 552.021C335.313 552.12 335.54 552.12 335.568 552.021C335.596 551.922 335.455 551.781 335.228 551.696C335.002 551.611 334.804 551.611 334.761 551.696Z" fill="#263238"/>
<g opacity="0.3">
<path d="M333.997 549.941L361.222 550.323L361.279 547.041L333.842 548.201L333.997 549.941Z" fill="black"/>
</g>
<path d="M404.111 555.092V540.546L376.858 540.447L376.702 561.672L378.386 561.785C385.9 562.224 416.591 563.511 421.671 562.011C427.246 560.384 404.111 555.092 404.111 555.092Z" fill="#FB923C"/>
<g opacity="0.4">
<path d="M415.402 558.078C415.402 558.078 423.51 560.455 422.477 561.785C421.444 563.115 390.357 562.988 376.645 561.785V561.176L412.926 561.643C412.926 561.643 413.818 558.148 415.402 558.078Z" fill="white"/>
</g>
<path d="M376.278 561.092H376.745L378.089 561.176L383.041 561.417C387.216 561.587 392.946 561.742 399.385 561.771C405.823 561.799 411.554 561.771 415.742 561.587L420.695 561.403L422.039 561.318H422.506H420.695L415.742 561.389C411.497 561.389 405.766 561.516 399.385 561.488C393.003 561.459 387.23 561.332 383.041 561.233L378.089 561.092H376.278Z" fill="#263238"/>
<path d="M412.983 562.011C413.195 561.188 413.509 560.394 413.917 559.648C414.407 558.953 414.977 558.316 415.615 557.752C414.763 558.062 414.057 558.677 413.634 559.478C413.106 560.211 412.874 561.115 412.983 562.011Z" fill="#263238"/>
<path d="M404.96 557.894C405.03 557.894 405.412 557.469 405.823 556.847C406.233 556.224 406.474 555.686 406.403 555.63C406.332 555.573 405.936 556.054 405.54 556.677C405.144 557.299 404.875 557.837 404.96 557.894Z" fill="#263238"/>
<path d="M402.752 556.719C402.752 556.719 403.248 556.493 403.715 556.082C404.181 555.672 404.521 555.262 404.464 555.191C404.408 555.12 403.969 555.417 403.502 555.828C403.035 556.238 402.696 556.648 402.752 556.719Z" fill="#263238"/>
<path d="M401.366 554.144C401.819 554.304 402.301 554.367 402.781 554.328C403.257 554.386 403.74 554.337 404.196 554.186C404.196 554.087 403.573 554.002 402.781 554.002C401.988 554.002 401.366 554.016 401.366 554.144Z" fill="#263238"/>
<path d="M400.899 552.318C401.369 552.628 401.92 552.791 402.483 552.785C403.039 552.896 403.616 552.822 404.125 552.573C403.591 552.492 403.052 552.454 402.512 552.46C401.979 552.365 401.439 552.318 400.899 552.318Z" fill="#263238"/>
<path d="M405.894 555.516C406.469 555.625 407.059 555.625 407.634 555.516C408.269 555.446 408.896 555.309 409.502 555.106C409.876 555.009 410.238 554.867 410.577 554.682C410.787 554.559 410.944 554.362 411.016 554.13C411.042 554.001 411.03 553.867 410.982 553.744C410.935 553.621 410.853 553.514 410.747 553.436C410.08 553.105 409.319 553.016 408.594 553.184C407.869 553.351 407.224 553.766 406.771 554.356C406.507 554.703 406.31 555.097 406.191 555.516C406.153 555.675 406.153 555.839 406.191 555.997C406.379 555.484 406.652 555.006 406.997 554.582C407.395 554.122 407.915 553.784 408.497 553.606C409.184 553.381 409.932 553.437 410.577 553.762C410.86 553.974 410.747 554.299 410.436 554.483C410.126 554.655 409.799 554.793 409.459 554.894C408.867 555.092 408.262 555.248 407.648 555.361C406.559 555.432 405.894 555.431 405.894 555.516Z" fill="#263238"/>
<path d="M406.346 555.616C406.552 555.245 406.622 554.815 406.544 554.399C406.497 553.938 406.336 553.495 406.078 553.111C405.933 552.858 405.728 552.644 405.481 552.489C405.234 552.334 404.953 552.241 404.663 552.22C404.574 552.236 404.489 552.271 404.414 552.321C404.339 552.371 404.274 552.435 404.224 552.51C404.174 552.585 404.14 552.669 404.123 552.758C404.106 552.847 404.106 552.938 404.125 553.026C404.165 553.304 404.267 553.57 404.422 553.804C404.649 554.192 404.924 554.549 405.243 554.866C405.78 555.403 406.219 555.616 406.233 555.573C406.247 555.531 405.894 555.262 405.412 554.71C405.134 554.38 404.888 554.025 404.677 553.649C404.436 553.281 404.28 552.616 404.677 552.545C405.073 552.474 405.554 552.941 405.823 553.281C406.071 553.621 406.24 554.013 406.318 554.427C406.361 554.822 406.37 555.219 406.346 555.616Z" fill="#263238"/>
<path d="M376.858 553.649C376.858 553.649 377.636 553.578 378.867 553.734C380.471 553.919 381.991 554.551 383.254 555.559C384.507 556.578 385.452 557.925 385.985 559.45C386.395 560.61 386.437 561.403 386.494 561.389C386.521 561.206 386.521 561.02 386.494 560.837C386.441 560.358 386.347 559.884 386.211 559.422C385.728 557.817 384.77 556.396 383.465 555.346C382.159 554.295 380.566 553.664 378.895 553.535C378.396 553.489 377.894 553.489 377.395 553.535C377.042 553.578 376.858 553.62 376.858 553.649Z" fill="#263238"/>
<path d="M379.73 542.315C379.533 544.194 379.448 546.084 379.475 547.975C379.379 549.861 379.403 551.751 379.546 553.635C379.735 551.754 379.82 549.864 379.801 547.975C379.897 546.088 379.873 544.198 379.73 542.315Z" fill="#263238"/>
<path d="M389.975 558.912C391.277 559.22 392.613 559.358 393.951 559.323C395.289 559.39 396.63 559.285 397.941 559.011C397.941 558.927 396.144 559.011 393.951 559.011C391.758 559.011 389.989 558.813 389.975 558.912Z" fill="#263238"/>
<path d="M384.626 558.87C384.626 558.941 384.782 559.252 384.952 559.662C385.121 560.073 385.235 560.441 385.334 560.426C385.433 560.412 385.475 560.002 385.263 559.535C385.051 559.068 384.697 558.813 384.626 558.87Z" fill="#263238"/>
<path d="M382.631 556.365C382.56 556.365 382.744 556.705 383.027 557.002C383.31 557.299 383.579 557.469 383.65 557.398C383.72 557.328 383.537 557.059 383.254 556.762C382.971 556.465 382.702 556.295 382.631 556.365Z" fill="#263238"/>
<path d="M379.758 555.205C379.758 555.304 380.141 555.304 380.537 555.446C380.933 555.587 381.23 555.799 381.301 555.743C381.372 555.686 381.145 555.304 380.65 555.134C380.155 554.965 379.73 555.12 379.758 555.205Z" fill="#263238"/>
<path d="M377.707 554.653C377.707 554.738 377.834 554.88 378.06 554.979C378.287 555.078 378.499 555.064 378.527 554.979C378.556 554.894 378.4 554.752 378.174 554.667C377.947 554.583 377.806 554.568 377.707 554.653Z" fill="#263238"/>
<g opacity="0.3">
<path d="M376.9 552.913L404.125 552.587L404.096 549.305L376.688 551.187L376.9 552.913Z" fill="black"/>
</g>
<path d="M343.945 306.094L354.854 338.936C357.798 347.808 365.552 349.336 374.905 349.336H435.594V335.71L380.155 327.8L366.939 294.038L343.945 306.094Z" fill="#FFBE9D"/>
<path d="M442.273 332.894L447.084 330.616C447.084 330.616 452.277 320.584 453.466 320.994C454.655 321.404 455.008 324.347 452.928 328.946L459.324 327.121C459.324 327.121 473.191 333.531 472.583 334.394C471.974 335.257 470.828 337.309 467.814 335.809C464.8 334.309 460.824 332.441 460.824 332.441L453.353 334.578L462.989 335.809L472.059 344.044C472.059 344.044 469.073 346.28 466.512 343.917L442.967 348.968L435.594 349.393V335.767L442.273 332.894Z" fill="#FFBE9D"/>
<path d="M466.512 343.874C466.413 343.874 465.975 343.238 465.097 342.318C464.597 341.791 464.02 341.342 463.385 340.988C462.586 340.606 461.722 340.38 460.838 340.323C458.445 340.16 456.075 339.757 453.763 339.12C456.16 339.039 458.559 339.2 460.923 339.601C461.914 339.662 462.879 339.937 463.753 340.408C464.434 340.819 465.033 341.351 465.522 341.978C466.014 342.511 466.356 343.166 466.512 343.874Z" fill="#EB996E"/>
<path d="M462.833 344.808C462.734 344.808 462.664 344.327 462.013 344.186C461.362 344.044 460.258 343.931 459.183 343.818C457.796 343.796 456.414 343.658 455.051 343.407C456.413 342.932 457.877 342.82 459.296 343.082C460.302 343.169 461.294 343.374 462.253 343.69C462.421 343.752 462.572 343.852 462.695 343.983C462.817 344.113 462.908 344.269 462.961 344.44C462.961 344.695 462.876 344.822 462.833 344.808Z" fill="#EB996E"/>
<path d="M292.708 171.004L289.411 237.763L317.994 240.452L319.578 224.321C319.578 224.321 329.653 226.811 332.71 217.486C334.677 211.529 336.417 164.862 336.417 164.862L292.708 171.004Z" fill="#FFBE9D"/>
<path d="M338.879 172.588C339.671 178.843 330.941 182.493 330.941 182.493L329.413 197.28C328.047 197.183 326.675 197.183 325.309 197.28C326.045 190.347 317.102 191.705 316.197 196.431C315.291 201.157 320.442 204.016 320.442 204.016C316.876 209.492 315.418 212.392 310.353 217.529C304.862 223.09 301.863 223.543 296.203 223.373L289.962 223.09C289.962 223.09 287.727 217.755 286.099 205.148C285.321 199.091 280.581 191.139 281.939 181.291C285.76 153.288 312.588 156.245 312.588 156.245C326.611 156.542 337.04 158.099 338.879 172.588Z" fill="#263238"/>
<path d="M318.376 156.967C324.432 157.122 330.714 157.603 336.035 160.504C341.355 163.405 345.459 169.39 344.369 175.348L341.341 175.899L340.096 173.664C340.096 174.852 340.096 176.041 340.096 177.23L334.775 178.715C333.975 174.173 332.375 169.808 330.049 165.825" fill="#263238"/>
<path d="M293.839 187.686C293.629 187.364 293.471 187.011 293.373 186.639C293.03 185.649 292.774 184.631 292.608 183.597C292.033 180.162 292.273 176.641 293.308 173.315C294.342 169.99 296.143 166.954 298.566 164.452C299.279 163.69 300.061 162.993 300.9 162.372C301.194 162.115 301.529 161.909 301.891 161.764C301.962 161.863 300.66 162.839 298.948 164.792C296.723 167.335 295.051 170.313 294.038 173.536C293.064 176.771 292.765 180.171 293.16 183.526C293.429 186.116 293.967 187.644 293.839 187.686Z" fill="#455A64"/>
<path d="M299.471 185.352C298.923 184.275 298.545 183.12 298.353 181.927C297.725 179.077 297.539 176.146 297.802 173.239C298.047 170.322 298.734 167.46 299.839 164.749C300.238 163.604 300.816 162.529 301.551 161.565C300.028 165.314 299.015 169.25 298.537 173.268C298.308 177.319 298.622 181.383 299.471 185.352Z" fill="#455A64"/>
<path d="M335.964 174.994C335.823 174.994 335.582 173.268 334.422 170.749C332.931 167.428 330.543 164.59 327.525 162.554C324.507 160.519 320.98 159.368 317.343 159.231C314.513 159.103 312.829 159.528 312.801 159.401C313.173 159.212 313.575 159.088 313.989 159.033C315.098 158.813 316.227 158.709 317.357 158.721C321.134 158.716 324.826 159.845 327.954 161.961C331.082 164.078 333.503 167.085 334.903 170.593C335.33 171.638 335.648 172.724 335.851 173.834C335.953 174.211 335.991 174.604 335.964 174.994Z" fill="#455A64"/>
<path d="M294.731 151.561C296.329 151.899 297.771 152.755 298.835 153.995C300.075 155.059 300.923 156.509 301.24 158.113C301.042 158.198 300.122 156.302 298.311 154.505C296.5 152.708 294.632 151.774 294.731 151.561Z" fill="#263238"/>
<path d="M301.396 151.59C301.608 151.66 301.169 153.16 301.254 155.014C301.339 156.868 301.848 158.311 301.65 158.41C300.855 157.474 300.449 156.269 300.518 155.042C300.349 153.821 300.664 152.582 301.396 151.59Z" fill="#455A64"/>
<path d="M338.808 298.934L343.464 314.74L373.094 301.339C372.033 298.028 367.122 283.284 357.755 259.88C355.191 253.464 351.018 247.816 345.637 243.482C340.257 239.147 333.85 236.271 327.035 235.132C317.694 233.427 308.23 232.48 298.735 232.302C282.123 232.485 257.7 242.872 254.389 259.187C251.871 271.61 254.29 293.557 254.29 320.216L256.455 371.156L341.582 373.986L338.808 298.934Z" fill="#FB923C"/>
<g opacity="0.3">
<path d="M254.333 308.443C264.69 310.565 275.317 308.443 285.873 307.806C292.269 307.424 299.372 306.731 304.438 310.636C308.456 313.749 310.098 318.999 311.23 323.951C315.645 342.813 316.437 355.463 317.428 374.806L266.19 377.919L254.333 308.443Z" fill="black"/>
</g>
<path d="M355.265 254.998C355.265 255.21 332.908 255.366 305.343 255.366C277.779 255.366 255.436 255.21 255.436 254.998C255.436 254.786 277.779 254.63 305.343 254.63C332.908 254.63 355.265 254.8 355.265 254.998Z" fill="#FAFAFA"/>
<path d="M361.477 269.304C361.477 269.502 337.167 269.672 307.211 269.672C277.256 269.672 252.946 269.502 252.946 269.304C252.946 269.106 277.227 268.936 307.211 268.936C337.195 268.936 361.477 269.106 361.477 269.304Z" fill="#FAFAFA"/>
<path d="M369.316 287.246C369.316 287.458 343.393 287.614 311.414 287.614C279.435 287.614 253.512 287.458 253.512 287.246C253.512 287.034 279.435 286.878 311.414 286.878C343.393 286.878 369.316 287.048 369.316 287.246Z" fill="#FAFAFA"/>
<path d="M338.186 306.603C338.186 306.801 330.078 306.971 320.102 306.971C310.126 306.971 302.004 306.801 302.004 306.603C302.004 306.405 310.098 306.235 320.102 306.235C330.106 306.235 338.186 306.391 338.186 306.603Z" fill="#FAFAFA"/>
<path d="M339.841 327.616C339.841 327.814 331.351 327.913 320.909 327.828C310.466 327.743 301.976 327.517 301.976 327.305C301.976 327.093 310.466 327.008 320.909 327.093C331.351 327.177 339.841 327.376 339.841 327.616Z" fill="#FAFAFA"/>
<path d="M340.662 344.667C340.172 344.756 339.672 344.78 339.176 344.738L335.115 344.653C331.691 344.582 326.965 344.483 321.743 344.483C316.522 344.483 311.838 344.568 308.372 344.639L304.311 344.724C303.813 344.788 303.308 344.788 302.811 344.724C303.294 344.582 303.793 344.506 304.296 344.497C305.244 344.398 306.631 344.299 308.343 344.2C311.768 343.988 316.508 343.818 321.743 343.818C326.979 343.818 331.719 344.002 335.129 344.214C336.841 344.313 338.228 344.426 339.19 344.525C339.685 344.513 340.179 344.561 340.662 344.667Z" fill="#FAFAFA"/>
<path d="M340.393 358.477C340.393 358.675 332.045 358.845 321.743 358.845C311.442 358.845 303.108 358.675 303.108 358.477C303.108 358.279 311.442 358.109 321.743 358.109C332.045 358.109 340.393 358.265 340.393 358.477Z" fill="#FAFAFA"/>
<path d="M342.926 240.975C342.926 241.188 326.54 241.343 306.334 241.343C286.128 241.343 269.728 241.188 269.728 240.975C269.728 240.763 286.114 240.608 306.334 240.608C326.554 240.608 342.926 240.777 342.926 240.975Z" fill="#FAFAFA"/>
<path d="M341.016 243.636C341.016 243.72 340.167 243.763 338.752 244.315C336.788 245.176 335.092 246.549 333.842 248.291C332.037 250.907 331.02 253.986 330.913 257.163C330.805 261.071 331.108 264.979 331.818 268.823C333.009 275.864 334.596 282.832 336.573 289.694C337.266 292.255 337.846 294.363 338.285 295.962C338.523 296.722 338.708 297.497 338.837 298.283C338.497 297.564 338.223 296.815 338.016 296.047C337.535 294.632 336.856 292.467 336.063 289.835C333.958 282.984 332.304 276.003 331.111 268.936C330.401 265.035 330.117 261.069 330.262 257.106C330.409 253.816 331.521 250.642 333.46 247.98C334.785 246.193 336.598 244.828 338.681 244.046C339.246 243.854 339.829 243.721 340.421 243.65C340.618 243.617 340.818 243.612 341.016 243.636Z" fill="#263238"/>
<path d="M372.146 297.293C370.827 298.214 369.43 299.019 367.971 299.698C365.34 301.113 361.646 302.882 357.515 304.75C353.383 306.617 349.591 308.174 346.817 309.235C345.343 309.872 343.819 310.388 342.261 310.778C343.662 309.997 345.118 309.32 346.619 308.754C349.336 307.566 353.1 305.924 357.217 304.085C361.335 302.245 365.042 300.476 367.731 299.231C369.157 298.486 370.632 297.838 372.146 297.293Z" fill="#263238"/>
<path d="M282.732 371.991L384.442 375.585C392.378 375.869 399.887 379.252 405.357 385.008C410.828 390.764 413.824 398.435 413.704 406.375L409.459 551.639L370.165 550.338L373.094 414.327L282.718 411.95L282.732 371.991Z" fill="#263238"/>
<path d="M240.706 371.991L342.431 375.585C350.367 375.869 357.875 379.252 363.346 385.008C368.816 390.764 371.813 398.435 371.693 406.375L367.448 551.639L327.63 548.484L331.111 414.327L240.734 411.95L240.706 371.991Z" fill="#263238"/>
<path d="M316.833 424.756H306.829V544.621H316.833V424.756Z" fill="#455A64"/>
<path d="M222.877 308.414V396.654C222.877 402.212 225.085 407.542 229.015 411.472C232.945 415.402 238.275 417.61 243.833 417.61H302.598V308.414C302.598 307.188 302.357 305.974 301.887 304.841C301.418 303.708 300.73 302.678 299.863 301.811C298.996 300.944 297.966 300.256 296.833 299.786C295.7 299.317 294.486 299.075 293.259 299.075H232.216C230.99 299.075 229.775 299.317 228.642 299.786C227.509 300.256 226.48 300.944 225.612 301.811C224.745 302.678 224.057 303.708 223.588 304.841C223.119 305.974 222.877 307.188 222.877 308.414Z" fill="#455A64"/>
<path d="M381.669 424.756H238.584C238.584 420.628 240.224 416.669 243.143 413.75C246.062 410.831 250.021 409.191 254.149 409.191H366.174C370.303 409.191 374.262 410.831 377.181 413.75C380.1 416.669 381.739 420.628 381.739 424.756H381.669Z" fill="#455A64"/>
<path d="M302.598 407.168C302.616 407.394 302.616 407.621 302.598 407.847C302.587 408.495 302.506 409.14 302.358 409.771C301.886 411.769 300.843 413.586 299.355 415.001C297.867 416.416 296 417.367 293.981 417.738C292.102 417.939 290.21 418.01 288.321 417.95H275.459C266.332 417.95 258.068 417.95 252.097 417.865L245.022 417.766L243.098 417.695C242.869 417.692 242.642 417.668 242.418 417.624C242.639 417.561 242.868 417.533 243.098 417.539L245.022 417.469L252.097 417.341C258.068 417.271 266.332 417.228 275.459 417.214H288.307C290.161 417.289 292.019 417.246 293.868 417.087C295.435 416.82 296.918 416.19 298.198 415.247C300.089 413.853 301.451 411.857 302.061 409.587C302.556 408.101 302.514 407.168 302.598 407.168Z" fill="#263238"/>
<path d="M320.611 425.067C317.698 425.44 314.758 425.563 311.824 425.435C308.895 425.562 305.96 425.439 303.051 425.067C305.96 424.704 308.895 424.581 311.824 424.699C314.758 424.58 317.697 424.704 320.611 425.067Z" fill="#263238"/>
<path d="M364.137 418.374C363.717 416.989 363.423 415.568 363.26 414.129C362.778 411.413 362.142 407.465 361.378 402.597C360.614 397.729 360.09 391.829 357.401 385.985C355.993 382.945 354.21 380.093 352.095 377.495C349.783 374.738 347.097 372.319 344.115 370.307C341.144 368.271 337.88 366.701 334.436 365.651C331.229 364.627 327.896 364.051 324.531 363.939C318.064 363.798 312.15 363.826 307.225 363.727C302.301 363.628 298.297 363.585 295.537 363.5C294.116 363.533 292.695 363.434 291.292 363.203C292.696 362.983 294.117 362.889 295.537 362.92C298.297 362.835 302.287 362.751 307.225 362.694C312.164 362.637 318.008 362.51 324.573 362.595C331.829 362.765 338.883 365.02 344.893 369.09C347.996 371.171 350.779 373.693 353.156 376.575C355.344 379.282 357.175 382.259 358.604 385.433C358.93 386.183 359.198 386.961 359.496 387.711L359.92 388.843C360.019 389.225 360.132 389.607 360.231 389.989C360.444 390.739 360.656 391.489 360.854 392.225C361.052 392.961 361.123 393.711 361.264 394.432C361.76 397.333 362.028 399.993 362.368 402.456C362.991 407.337 363.486 411.313 363.783 414.044C364.031 415.474 364.15 416.923 364.137 418.374Z" fill="#455A64"/>
<path d="M355.59 555.432H354.175C354.278 549.776 353.253 544.156 351.16 538.901C349.067 533.646 345.948 528.86 341.985 524.824C338.022 520.788 333.294 517.582 328.078 515.394C322.862 513.205 317.262 512.078 311.605 512.078C305.948 512.078 300.348 513.205 295.132 515.394C289.916 517.582 285.188 520.788 281.225 524.824C277.262 528.86 274.142 533.646 272.049 538.901C269.956 544.156 268.931 549.776 269.035 555.432H267.62C267.515 549.589 268.575 543.784 270.738 538.356C272.902 532.927 276.125 527.984 280.22 523.815C284.315 519.646 289.199 516.335 294.588 514.075C299.976 511.814 305.761 510.65 311.605 510.65C317.448 510.65 323.233 511.814 328.622 514.075C334.011 516.335 338.895 519.646 342.99 523.815C347.085 527.984 350.308 532.927 352.471 538.356C354.635 543.784 355.695 549.589 355.59 555.432Z" fill="#455A64"/>
<path d="M274.921 557.667C274.921 558.971 274.534 560.246 273.81 561.331C273.085 562.415 272.055 563.26 270.85 563.759C269.646 564.258 268.32 564.389 267.041 564.135C265.762 563.88 264.587 563.252 263.664 562.33C262.742 561.408 262.114 560.233 261.86 558.954C261.605 557.675 261.736 556.349 262.235 555.144C262.734 553.939 263.579 552.909 264.664 552.185C265.748 551.46 267.023 551.073 268.327 551.073C269.193 551.072 270.052 551.241 270.853 551.572C271.653 551.902 272.381 552.388 272.994 553.001C273.606 553.613 274.092 554.341 274.423 555.142C274.754 555.943 274.923 556.801 274.921 557.667Z" fill="#263238"/>
<path d="M361.802 556.762C361.802 558.066 361.415 559.341 360.691 560.425C359.966 561.509 358.936 562.355 357.732 562.854C356.527 563.353 355.201 563.483 353.922 563.229C352.643 562.974 351.468 562.346 350.546 561.424C349.623 560.502 348.995 559.327 348.741 558.048C348.487 556.769 348.617 555.443 349.116 554.238C349.615 553.033 350.46 552.004 351.545 551.279C352.629 550.554 353.904 550.168 355.208 550.168C356.957 550.168 358.634 550.862 359.871 552.099C361.107 553.336 361.802 555.013 361.802 556.762Z" fill="#263238"/>
<path d="M355.166 544.621C355.166 544.833 336.021 545.003 312.419 545.003C288.816 545.003 269.671 544.833 269.671 544.621C269.671 544.409 288.802 544.253 312.419 544.253C336.035 544.253 355.166 544.423 355.166 544.621Z" fill="#455A64"/>
<path d="M209.137 269.275C210.181 269.935 211.082 270.797 211.786 271.81C212.491 272.824 212.986 273.968 213.241 275.176C213.725 277.609 213.647 280.121 213.015 282.52C211.939 287.161 208.77 291.604 205.374 295.029C201.822 291.109 201.61 284.968 201.695 281.841C201.836 276.902 205.105 268.059 209.137 269.275Z" fill="#FB923C"/>
<path d="M209.081 303.349C208.974 301.976 209.23 300.6 209.824 299.358C210.417 298.116 211.327 297.052 212.463 296.274C213.616 295.513 214.909 294.988 216.267 294.731C217.625 294.473 219.02 294.488 220.373 294.774C221.007 294.84 221.619 295.044 222.167 295.372C222.714 295.699 223.183 296.142 223.542 296.67C223.792 297.213 223.892 297.812 223.833 298.407C223.773 299.002 223.555 299.569 223.203 300.052C222.472 301.016 221.494 301.764 220.373 302.217C216.679 303.971 212.788 305.047 209.053 303.377" fill="#FB923C"/>
<path d="M203.109 313.707C203.306 312.669 203.609 311.654 204.015 310.678C204.411 309.594 204.938 308.563 205.586 307.608C206.326 306.415 207.148 305.276 208.048 304.198C209.702 302.213 211.822 300.667 214.217 299.698C214.946 299.43 215.7 299.236 216.467 299.118C216.748 299.071 217.035 299.071 217.316 299.118C217.316 299.217 216.128 299.344 214.359 300.094C212.081 301.135 210.065 302.673 208.458 304.594C207.571 305.651 206.748 306.762 205.996 307.919C205.348 308.841 204.798 309.827 204.355 310.862C204.008 311.839 203.592 312.789 203.109 313.707Z" fill="#263238"/>
<path d="M207.241 276.223C207.294 276.755 207.294 277.29 207.241 277.822C207.241 278.841 207.1 280.327 206.972 282.152C206.704 285.817 206.265 290.868 205.671 296.443C205.076 302.019 204.369 307.028 203.789 310.593C203.492 312.405 203.251 313.862 203.053 314.838C202.98 315.366 202.862 315.887 202.699 316.395C202.694 315.859 202.742 315.323 202.841 314.796C202.996 313.692 203.18 312.235 203.407 310.551C203.888 306.914 204.525 301.891 205.133 296.316C205.741 290.741 206.208 285.803 206.548 282.067C206.732 280.312 206.888 278.855 207.001 277.737C207.044 277.227 207.124 276.721 207.241 276.223Z" fill="#263238"/>
<path d="M202.883 304.467C202.337 301.603 201.119 298.91 199.328 296.609C197.537 294.309 195.225 292.467 192.582 291.236C191.167 290.628 189.483 290.246 188.408 291.236C187.332 292.227 187.615 294.066 188.181 295.41C189.415 298.248 191.461 300.657 194.063 302.332C196.665 304.006 199.705 304.872 202.798 304.82" fill="#FB923C"/>
<path d="M193.615 295.453C193.883 295.536 194.136 295.66 194.365 295.821C197.225 297.464 199.716 299.68 201.68 302.33C202.454 303.502 203.032 304.793 203.393 306.15C203.672 307.26 203.8 308.402 203.775 309.546C203.755 310.312 203.665 311.075 203.506 311.825C203.469 312.107 203.393 312.384 203.279 312.645C203.166 312.645 203.421 311.443 203.393 309.546C203.365 308.442 203.208 307.345 202.926 306.278C202.546 304.982 201.974 303.752 201.228 302.627C199.798 300.604 198.055 298.822 196.063 297.349C195.208 296.768 194.391 296.135 193.615 295.453Z" fill="#263238"/>
<path d="M202.416 349.35C197.724 349.347 193.225 347.48 189.908 344.161C186.592 340.841 184.729 336.341 184.729 331.649V313.961H220.104V331.649C220.104 336.341 218.241 340.841 214.924 344.161C211.607 347.48 207.108 349.347 202.416 349.35Z" fill="#263238"/>
<path d="M220.118 322.663C219.975 322.845 219.814 323.011 219.637 323.159L218.222 324.475L212.831 329.031L212.703 329.13L212.548 329.045L202.345 322.918H202.643L193.035 329.031L192.893 329.13L192.752 329.017L186.879 324.418L185.266 323.116C185.067 322.97 184.886 322.798 184.729 322.607C184.959 322.701 185.174 322.83 185.365 322.989C185.818 323.314 186.384 323.725 187.063 324.192L193.049 328.635H192.766L202.26 322.38L202.416 322.281L202.572 322.366L212.774 328.621H212.491L217.967 324.192L219.509 322.975C219.906 322.777 220.104 322.635 220.118 322.663Z" fill="#E0E0E0"/>
<path d="M220.118 319.126C219.975 319.307 219.814 319.473 219.637 319.621L218.222 320.937L212.887 325.536L212.76 325.635L212.604 325.55L202.345 319.381H202.643L193.091 325.564L192.95 325.663L192.808 325.55L186.936 320.951L185.323 319.649C185.123 319.503 184.943 319.332 184.785 319.14C185.016 319.234 185.231 319.363 185.422 319.522L187.12 320.725L193.105 325.168H192.822L202.317 318.914L202.473 318.815L202.628 318.9L212.831 325.154H212.548L218.024 320.725L219.566 319.508C219.906 319.239 220.104 319.126 220.118 319.126Z" fill="#E0E0E0"/>
<path d="M220.118 326.201C220.118 326.201 219.962 326.399 219.637 326.71L218.222 328.012L212.887 332.611L212.76 332.724L212.604 332.625L202.345 326.526H202.643L193.091 332.71L192.95 332.809L192.808 332.71C190.445 330.842 188.45 329.286 186.936 328.111L185.323 326.795C184.955 326.484 184.771 326.314 184.785 326.286C185.012 326.387 185.226 326.515 185.422 326.668C185.875 327.008 186.441 327.404 187.12 327.885L193.105 332.314H192.822L202.317 326.06L202.473 325.96L202.628 326.06L212.831 332.3H212.548L218.024 327.857L219.566 326.654C219.729 326.479 219.915 326.327 220.118 326.201Z" fill="#E0E0E0"/>
<path d="M678.579 390.895C671.249 392.084 667.966 401.083 668.674 408.483C669.381 415.884 672.367 423.129 671.504 430.501C670.471 439.882 663.382 447.806 662.561 457.202C661.585 468.281 669.424 478.116 671.758 488.983C672.905 494.275 672.749 499.878 674.716 504.916C676.395 509.206 679.51 512.782 683.53 515.033C687.55 517.283 692.226 518.07 696.762 517.259C701.297 516.448 705.41 514.089 708.401 510.584C711.392 507.079 713.074 502.645 713.161 498.039C713.317 489.549 708.067 481.526 708.704 473.036C709.171 466.767 712.85 460.824 712.072 454.641C711.124 447.212 704.247 441.906 701.813 434.831C699.379 427.756 701.728 419.945 700.879 412.502C699.379 399.159 691.979 389.862 678.593 390.923" fill="#FB923C"/>
<path d="M641.138 455.518C639.878 467.885 645.383 482.403 651.708 493.115C658.145 503.874 667.846 512.3 679.4 517.17C680.687 517.707 682.3 518.16 683.39 517.283C683.778 516.86 684.069 516.357 684.242 515.809C684.416 515.262 684.468 514.683 684.394 514.113C684.488 500.986 680.324 488.182 672.524 477.623C664.725 467.063 653.712 459.317 641.138 455.546" fill="#FB923C"/>
<g opacity="0.2">
<path d="M641.138 455.518C639.878 467.885 645.383 482.403 651.708 493.115C658.145 503.874 667.846 512.3 679.4 517.17C680.687 517.707 682.3 518.16 683.39 517.283C683.778 516.86 684.069 516.357 684.242 515.809C684.416 515.262 684.468 514.683 684.394 514.113C684.488 500.986 680.324 488.182 672.524 477.623C664.725 467.063 653.712 459.317 641.138 455.546" fill="black"/>
</g>
<path d="M695.007 542.994C694.859 542.784 694.74 542.556 694.653 542.314L693.762 540.277C693.026 538.522 691.908 536.032 690.493 532.848C686.809 524.726 682.714 516.797 678.225 509.09C673.706 501.392 668.804 493.926 663.537 486.719C661.514 483.96 659.844 481.738 658.67 480.224C658.132 479.517 657.679 478.922 657.34 478.455C657.173 478.258 657.026 478.045 656.901 477.818C656.901 477.818 657.113 477.988 657.439 478.37L658.854 480.054C660.099 481.469 661.825 483.691 663.905 486.422C674.737 500.693 683.815 516.214 690.946 532.65C692.361 535.805 693.351 538.381 694.016 540.178L694.781 542.258C694.878 542.496 694.954 542.742 695.007 542.994Z" fill="#263238"/>
<path d="M687.04 425.11C687.12 425.501 687.167 425.899 687.182 426.298C687.182 427.133 687.323 428.265 687.423 429.708C687.621 432.722 687.889 436.996 688.229 442.231C688.894 452.815 689.828 467.432 690.974 483.563C692.12 499.694 693.224 514.311 694.045 524.882C694.441 530.117 694.766 534.376 695.007 537.404C695.106 538.819 695.177 539.965 695.233 540.8C695.268 541.201 695.268 541.603 695.233 542.003C695.233 542.003 695.163 541.593 695.064 540.814C694.965 540.036 694.851 538.848 694.696 537.418C694.413 534.404 694.016 530.145 693.521 524.924C692.573 514.354 691.37 499.765 690.238 483.62C689.106 467.475 688.272 452.858 687.691 442.231C687.451 436.982 687.253 432.722 687.111 429.694C687.111 428.279 687.026 427.119 686.998 426.27C686.977 425.883 686.991 425.494 687.04 425.11Z" fill="#263238"/>
<path d="M675.664 525.363H706.638V548.102C706.635 552.044 705.066 555.823 702.277 558.609C699.489 561.394 695.708 562.959 691.767 562.959C687.962 562.961 684.302 561.503 681.54 558.887C678.779 556.27 677.126 552.693 676.923 548.894L675.664 525.363Z" fill="#263238"/>
<path d="M518.797 225.58L592.66 266.488L589.886 271.695L516.674 230.023L518.797 225.58Z" fill="#FB923C"/>
<path d="M515.16 221.717L518.556 216.524L520.537 217.741L517.495 222.977L515.16 221.717Z" fill="#FB923C"/>
<path d="M584.269 260.021L588.061 262.2L575.694 341.129L569.836 341.2L584.269 260.021Z" fill="#FB923C"/>
<path d="M552.813 349.35C552.813 349.35 561.827 340.238 573.883 340.86C577.328 340.987 580.715 341.793 583.848 343.233C586.98 344.673 589.797 346.719 592.136 349.251L552.813 349.35Z" fill="#FB923C"/>
<path d="M515.231 257.503L485.983 240.607L494.473 225.99C495.581 224.07 497.056 222.386 498.815 221.035C500.574 219.685 502.582 218.694 504.724 218.12C506.866 217.546 509.1 217.399 511.298 217.689C513.497 217.978 515.617 218.698 517.537 219.807C521.414 222.047 524.242 225.735 525.402 230.06C526.561 234.384 525.957 238.992 523.721 242.871L515.231 257.503Z" fill="#FB923C"/>
</svg>
